<?xml version="1.0" standalone="no"?>
<!DOCTYPE svg PUBLIC "-//W3C//DTD SVG 20010904//EN"
 "http://www.w3.org/TR/2001/REC-SVG-20010904/DTD/svg10.dtd">
<svg version="1.0" xmlns="http://www.w3.org/2000/svg"
 width="300.000000pt" height="352.000000pt" viewBox="0 0 300.000000 352.000000"
 preserveAspectRatio="xMidYMid meet">
<metadata>
Created by potrace 1.10, written by Peter Selinger 2001-2011
</metadata>
<g transform="translate(0.000000,352.000000) scale(0.100000,-0.100000)"
fill="#000000" stroke="none">
<path d="M1304 3253 c-10 -8 -38 -11 -70 -8 -34 2 -54 0 -54 -7 0 -6 -9 -8
-20 -5 -12 3 -34 -6 -57 -24 -21 -16 -45 -29 -54 -29 -8 0 -42 -26 -75 -57
-32 -32 -74 -66 -93 -76 -25 -13 -32 -22 -28 -37 3 -13 -3 -24 -19 -35 -13 -8
-26 -26 -30 -40 -3 -14 -11 -25 -17 -25 -6 0 -8 -2 -5 -5 3 -4 23 4 44 16 21
11 54 21 74 21 27 0 31 2 15 8 -17 7 -16 9 14 16 l33 7 -31 13 c-17 7 -31 18
-31 24 0 7 -8 9 -21 5 -15 -5 -19 -4 -15 4 4 6 22 11 39 11 25 0 29 3 17 10
-11 8 -8 9 13 4 29 -7 35 4 14 25 -6 8 2 6 20 -4 17 -10 37 -29 44 -41 6 -13
21 -24 32 -26 11 -2 22 -9 25 -16 3 -11 0 -12 -19 -2 l-24 11 24 -19 c13 -11
21 -24 17 -31 -5 -7 6 -11 33 -11 23 0 41 5 41 11 0 5 -8 9 -17 8 -32 -3 -44
1 -42 14 3 26 -2 36 -21 42 -10 3 -36 23 -56 43 -36 36 -38 59 -4 70 7 3 10 0
6 -6 -3 -6 7 -20 24 -32 16 -12 30 -27 30 -35 0 -7 9 -15 20 -18 11 -3 20 -3
20 0 0 6 -32 42 -67 78 -29 28 -30 49 -3 40 13 -4 22 -1 26 9 12 32 79 11 122
-39 13 -15 26 -24 30 -20 4 3 -11 22 -33 41 -22 19 -36 34 -31 34 5 0 17 -7
27 -16 10 -9 22 -13 27 -10 16 10 -10 55 -38 66 -25 10 -25 10 3 5 17 -3 27
-1 27 6 0 19 14 1 17 -23 2 -12 12 -30 23 -40 26 -24 26 -4 0 22 -26 26 -17
54 13 38 47 -24 106 -79 101 -93 -4 -8 -11 -12 -16 -9 -7 4 -7 0 0 -12 5 -11
12 -26 15 -34 4 -9 6 -5 6 10 -2 41 1 54 9 46 4 -4 7 -11 7 -15 0 -3 6 -13 13
-21 7 -8 20 -24 28 -35 15 -19 15 -19 8 5 -3 14 -18 37 -32 53 -19 20 -23 30
-15 38 9 9 26 -1 67 -36 31 -26 56 -52 56 -57 0 -6 -7 -5 -15 2 -9 8 -15 9
-15 2 0 -6 5 -14 10 -17 6 -3 10 -16 10 -29 0 -23 17 -46 34 -46 5 0 2 8 -6
18 -10 11 -13 24 -8 37 12 34 0 54 -61 101 -33 25 -57 49 -54 54 6 10 -54 45
-62 36 -4 -3 8 -11 25 -19 24 -10 28 -16 21 -29 -8 -15 -14 -13 -43 19 -28 30
-31 39 -20 50 15 15 28 17 19 3 -5 -8 15 -12 60 -10 23 1 138 -89 136 -106 -1
-4 5 -9 14 -10 10 -2 5 10 -16 37 -17 21 -36 36 -41 33 -7 -4 -8 -2 -4 4 4 7
-9 20 -31 32 -21 12 -29 18 -18 14 11 -3 43 -8 70 -9 36 -2 64 -11 103 -35 28
-18 52 -35 52 -37 0 -2 -6 -1 -12 3 -7 5 2 -10 21 -31 32 -37 90 -147 95 -180
1 -9 5 -15 9 -15 4 0 12 0 17 0 6 0 10 8 10 17 0 15 -1 15 -13 -2 -13 -16 -14
-15 -12 13 1 17 -2 29 -6 26 -5 -2 -13 13 -19 34 -5 22 -19 51 -30 65 -23 29
-26 42 -7 31 7 -4 9 -3 4 2 -5 5 -14 9 -20 9 -5 0 -12 6 -15 14 -3 9 0 11 9 7
13 -7 -14 16 -55 47 -12 9 -15 16 -8 21 6 3 27 -8 46 -25 20 -17 36 -26 36
-20 0 6 4 11 9 11 4 0 6 -11 4 -24 -3 -16 2 -30 16 -43 12 -10 30 -26 41 -35
35 -31 21 0 -17 37 -42 41 -37 45 14 10 20 -13 38 -35 40 -47 2 -13 17 -45 33
-71 17 -27 30 -54 30 -60 1 -17 37 -63 45 -56 3 4 -3 24 -15 44 -12 21 -19 44
-16 52 3 8 2 12 -2 9 -5 -3 -16 8 -26 25 -9 16 -21 29 -25 29 -15 0 -19 38 -5
44 20 8 103 -112 88 -127 -3 -3 3 -4 12 -3 10 0 23 -9 29 -21 7 -13 14 -20 17
-18 3 3 8 -3 10 -13 4 -15 1 -18 -13 -15 -11 3 -19 11 -19 18 0 7 -7 18 -15
25 -17 14 -20 3 -8 -38 4 -17 11 -22 24 -19 14 4 19 0 19 -14 0 -10 5 -19 10
-19 6 0 10 5 10 11 0 5 5 7 11 4 6 -5 4 -12 -8 -21 -16 -12 -15 -13 15 -14 33
0 36 -6 34 -68 -1 -12 3 -20 7 -17 5 3 11 -2 14 -10 4 -9 1 -12 -9 -8 -19 7
-18 4 16 -71 22 -46 29 -76 27 -105 -2 -23 1 -41 6 -41 5 0 7 -7 3 -15 -3 -8
2 -19 12 -24 9 -6 12 -11 5 -11 -7 0 -10 -7 -7 -17 5 -15 3 -15 -11 2 -17 19
-17 17 -12 -43 5 -55 3 -61 -8 -45 -12 16 -14 6 -15 -77 -1 -52 -2 -113 -4
-135 -3 -47 2 -67 15 -59 5 3 9 -1 9 -8 0 -7 3 -23 6 -34 4 -15 -2 -28 -17
-43 -22 -20 -37 -57 -18 -45 5 3 9 -3 9 -13 0 -10 3 -29 7 -43 3 -14 2 -21 -3
-17 -4 4 -14 -3 -21 -15 -7 -13 -13 -16 -12 -8 3 30 -1 83 -6 79 -10 -10 -12
-109 -2 -109 6 0 7 -17 4 -42 -3 -23 -2 -36 2 -29 6 9 11 10 15 3 3 -6 2 -13
-4 -17 -7 -4 -7 -12 0 -25 5 -10 10 -25 10 -32 -1 -7 -7 2 -16 21 -8 19 -17
32 -20 28 -3 -3 2 -19 10 -36 18 -34 19 -41 8 -41 -4 0 -13 14 -19 31 -7 18
-17 28 -23 24 -7 -4 -3 -16 10 -35 21 -29 27 -66 10 -55 -6 4 -8 10 -5 14 6
11 -22 48 -30 40 -3 -4 3 -21 14 -39 10 -18 17 -39 14 -46 -8 -21 -23 -17 -16
4 3 9 2 14 -2 9 -5 -4 -14 5 -21 20 -11 24 -12 25 -13 7 -1 -12 7 -32 17 -45
28 -36 34 -59 17 -59 -8 0 -14 3 -14 8 3 19 -2 33 -11 27 -6 -4 -6 -15 0 -31
5 -13 9 -30 7 -36 -1 -5 6 -12 16 -13 14 -3 18 1 14 15 -3 11 1 24 8 30 8 6
11 18 8 26 -3 7 2 16 10 20 9 3 13 12 10 20 -3 9 2 14 13 14 18 1 18 1 0 15
-17 13 -17 14 2 36 15 16 19 30 15 50 -4 21 -2 29 8 29 11 0 11 2 -1 10 -12 8
-13 13 -2 30 14 23 15 31 5 29 -17 -3 -33 1 -33 9 0 4 14 7 31 8 40 2 62 26
83 94 28 90 57 255 46 258 -6 2 -7 9 -3 15 27 43 1 119 -40 114 -21 -2 -22 0
-19 79 2 51 -3 111 -14 160 -9 43 -19 93 -21 109 -4 29 -15 60 -34 98 -6 11
-5 17 2 17 8 0 6 7 -4 18 -10 10 -14 22 -10 25 3 4 -2 15 -13 24 -21 20 -64
98 -64 117 0 7 -11 25 -25 40 -14 15 -25 24 -25 20 0 -4 -9 1 -20 11 -22 20
-27 41 -7 29 8 -5 8 -3 -2 9 -7 9 -17 15 -21 12 -11 -7 -31 20 -22 30 4 5 2 5
-4 2 -7 -4 -19 4 -28 18 -17 26 -37 34 -33 13 2 -7 -1 -3 -7 10 -6 13 -16 20
-24 17 -7 -2 -10 -1 -7 5 3 5 -9 13 -27 18 -18 6 -59 22 -91 36 -32 15 -56 22
-52 16 3 -5 -1 -10 -9 -10 -8 0 -18 5 -21 11 -4 6 -13 8 -20 5 -7 -2 -23 2
-34 11 -12 8 -25 12 -29 8 -3 -3 0 -11 8 -16 12 -8 9 -9 -10 -5 -14 3 -34 6
-45 7 -14 1 -11 4 10 9 21 6 7 8 -47 7 -42 -1 -85 -7 -94 -14z m-156 -59 c18
-8 32 -16 32 -18 0 -7 -71 -2 -76 5 -3 5 3 9 13 9 15 0 16 2 3 10 -23 15 -6
12 28 -6z m-243 -224 c-4 -6 -12 -9 -18 -7 -6 2 -20 -5 -31 -15 -32 -29 -54
-23 -26 7 13 14 32 25 42 25 10 0 18 5 18 12 0 9 3 9 11 1 6 -6 8 -16 4 -23z
m1075 -12 c0 -4 -9 0 -20 9 -11 10 -20 21 -20 25 0 4 9 0 20 -9 11 -10 20 -21
20 -25z m137 -590 c-2 -13 -4 -5 -4 17 -1 22 1 32 4 23 2 -10 2 -28 0 -40z
m-4 -96 c-6 -13 -8 -13 -14 4 -4 10 -8 26 -8 34 0 12 3 11 14 -3 7 -11 11 -26
8 -35z m80 12 c3 -4 -2 -18 -13 -32 -11 -13 -17 -29 -14 -34 9 -14 8 -157 -1
-198 -4 -19 -14 -43 -22 -52 -12 -14 -13 -21 -4 -31 14 -17 -10 -81 -33 -90
-11 -5 -14 6 -14 53 1 33 5 57 9 54 5 -3 9 2 9 10 0 8 -4 17 -10 21 -5 3 -7
12 -3 21 3 8 8 12 11 10 5 -6 31 24 32 36 0 4 -6 5 -14 2 -7 -3 -16 3 -19 13
-2 10 -8 27 -12 38 -5 16 -5 17 4 5 9 -12 11 -11 11 8 0 12 -5 22 -11 22 -7 0
-8 12 -4 33 12 58 29 97 42 97 7 0 13 5 13 10 0 11 33 14 43 4z m-115 -449
c-3 -3 -9 2 -12 12 -6 14 -5 15 5 6 7 -7 10 -15 7 -18z"/>
<path d="M2130 2205 c-6 -8 -10 -19 -8 -26 2 -6 9 0 16 15 13 29 10 33 -8 11z"/>
<path d="M1497 3214 c-4 -4 13 -29 37 -55 45 -51 63 -93 48 -112 -6 -8 -4 -23
3 -41 12 -28 12 -28 18 -5 4 14 1 26 -6 31 -7 4 -7 8 -2 8 16 0 16 37 0 68 -8
15 -34 44 -57 64 -24 21 -38 38 -31 38 20 0 111 -96 127 -135 18 -43 32 -43
16 -1 -5 15 -7 32 -4 38 4 7 2 8 -4 4 -6 -3 -16 2 -22 13 -10 20 -96 91 -110
91 -4 0 -10 -3 -13 -6z"/>
<path d="M1458 3136 c26 -25 49 -42 52 -39 6 6 -78 83 -91 83 -4 0 13 -20 39
-44z"/>
<path d="M1053 3134 c-3 -8 -1 -20 6 -27 6 -6 11 -7 11 -2 0 4 9 0 20 -10 11
-10 18 -21 15 -24 -6 -11 38 -11 51 0 8 7 17 5 27 -6 20 -19 33 -20 17 0 -11
13 -66 45 -78 45 -2 0 1 -7 8 -15 24 -29 1 -27 -24 1 l-25 29 22 6 c21 5 21 5
-3 12 -36 10 -40 9 -47 -9z"/>
<path d="M1291 3134 c6 -7 16 -11 21 -8 11 7 3 17 -18 20 -12 2 -13 -1 -3 -12z"/>
<path d="M1275 3110 c4 -8 15 -23 23 -32 7 -9 11 -21 8 -27 -4 -5 -2 -12 3
-15 5 -3 7 -16 3 -28 -3 -14 -1 -19 6 -14 6 3 13 2 17 -4 8 -13 25 -13 25 0 0
6 -7 10 -15 10 -8 0 -15 6 -16 13 -3 46 -9 61 -34 85 -15 15 -24 20 -20 12z"/>
<path d="M1220 3083 c1 -4 16 -26 35 -48 34 -39 35 -39 25 -10 -10 27 -61 77
-60 58z"/>
<path d="M1830 3083 c0 -5 9 -21 20 -38 24 -36 26 -26 5 15 -15 29 -25 38 -25
23z"/>
<path d="M1510 3071 c0 -6 4 -13 10 -16 6 -3 7 1 4 9 -7 18 -14 21 -14 7z"/>
<path d="M1160 3061 c0 -5 5 -13 10 -16 6 -3 10 -2 10 4 0 5 -4 13 -10 16 -5
3 -10 2 -10 -4z"/>
<path d="M1755 3049 c4 -12 20 -42 36 -67 16 -25 29 -52 29 -60 0 -8 6 -12 15
-8 8 3 15 0 15 -6 0 -6 2 -9 4 -7 3 2 1 20 -4 39 -4 19 -8 27 -9 16 -2 -28
-31 0 -31 30 0 13 -9 33 -20 44 -11 11 -20 25 -20 30 0 6 -5 10 -11 10 -6 0
-8 -9 -4 -21z"/>
<path d="M1351 3046 c-9 -10 -5 -17 14 -30 24 -16 25 -16 25 8 0 28 -24 41
-39 22z"/>
<path d="M1670 3046 c0 -8 5 -18 10 -21 6 -3 10 -16 10 -28 1 -20 2 -20 11 -5
7 13 5 24 -7 43 -19 29 -24 31 -24 11z"/>
<path d="M1537 3044 c-3 -5 1 -15 9 -22 16 -14 18 -5 5 17 -5 7 -11 9 -14 5z"/>
<path d="M1120 3023 c0 -5 11 -13 25 -20 28 -13 32 -8 11 13 -16 15 -36 19
-36 7z"/>
<path d="M1400 3026 c0 -4 42 -47 72 -74 22 -20 26 -21 32 -7 3 9 2 14 -2 11
-5 -3 -21 7 -38 20 -22 20 -24 24 -9 20 17 -5 16 -3 -4 11 -21 15 -51 26 -51
19z"/>
<path d="M979 3012 c11 -8 10 -11 -5 -15 -13 -3 -10 -5 9 -6 32 -1 33 22 1 27
-15 2 -16 1 -5 -6z"/>
<path d="M1200 3016 c0 -2 7 -9 15 -16 9 -7 15 -8 15 -2 0 5 -7 12 -15 16 -8
3 -15 4 -15 2z"/>
<path d="M1240 3012 c0 -12 19 -26 26 -19 2 2 -2 10 -11 17 -9 8 -15 8 -15 2z"/>
<path d="M1520 3010 c0 -6 9 -19 20 -30 11 -11 20 -17 20 -13 0 3 9 -2 20 -12
11 -10 20 -14 20 -9 -1 13 -23 41 -35 42 -5 1 -18 9 -27 17 -10 8 -18 10 -18
5z"/>
<path d="M1119 2977 c23 -26 49 -38 36 -17 -8 14 8 13 22 -1 6 -6 17 -9 25 -6
8 3 -1 11 -22 20 -19 8 -38 13 -43 10 -4 -2 -16 1 -25 8 -9 8 -6 1 7 -14z"/>
<path d="M1621 2984 c0 -11 3 -14 6 -6 3 7 2 16 -1 19 -3 4 -6 -2 -5 -13z"/>
<path d="M1651 2986 c-7 -8 -11 -23 -8 -33 3 -13 5 -11 6 6 1 24 1 24 15 5 19
-25 28 -15 12 14 -11 20 -14 21 -25 8z"/>
<path d="M1212 2970 c14 -23 35 -28 68 -20 23 6 23 7 5 12 -11 4 -34 11 -52
16 -30 10 -31 9 -21 -8z"/>
<path d="M1303 2970 c15 -12 25 -25 22 -30 -3 -4 4 -6 15 -3 11 3 20 7 20 9 0
2 -19 13 -42 24 l-43 21 28 -21z"/>
<path d="M1370 2979 c0 -5 6 -9 13 -9 8 0 22 -9 32 -20 10 -11 22 -17 26 -14
14 8 11 24 -4 24 -7 0 -18 5 -25 12 -15 15 -42 19 -42 7z"/>
<path d="M1711 2984 c1 -21 16 -47 21 -38 4 5 0 18 -8 29 -8 10 -14 15 -13 9z"/>
<path d="M2023 2945 c0 -22 2 -30 4 -17 2 12 2 30 0 40 -3 9 -5 -1 -4 -23z"/>
<path d="M959 2959 c-23 -7 -22 -7 6 -9 49 -3 68 -8 76 -21 12 -20 0 -29 -26
-19 -23 9 -62 6 -73 -5 -3 -3 2 -5 11 -5 10 0 17 -4 17 -10 0 -5 8 -10 18 -10
24 0 -34 -30 -62 -31 -17 -1 -17 -2 -3 -6 9 -2 17 -9 17 -15 0 -6 -3 -9 -6 -5
-10 10 -68 -15 -95 -40 -16 -14 -29 -20 -33 -15 -3 6 8 22 26 36 22 17 28 26
17 26 -37 0 -60 -33 -63 -88 -1 -28 1 -52 6 -52 4 0 4 -10 -1 -23 -13 -34 -30
-190 -31 -287 -2 -108 -2 -104 13 -92 9 8 13 7 14 -6 1 -9 8 -39 15 -67 16
-58 18 -189 3 -192 -5 -1 -14 14 -20 34 -5 19 -13 31 -17 27 -11 -10 2 -55 22
-81 11 -15 18 -41 18 -77 0 -31 4 -61 8 -68 12 -19 14 -58 3 -58 -14 0 -11
-33 5 -56 10 -14 12 -24 4 -35 -8 -11 -8 -9 -3 6 5 15 3 17 -6 8 -7 -7 -8 -17
-3 -25 5 -7 10 -35 11 -63 2 -77 4 -84 15 -91 5 -3 15 -1 21 5 8 8 6 11 -9 11
-16 0 -16 2 -4 10 10 6 20 5 30 -6 13 -12 13 -16 1 -23 -7 -5 -11 -13 -7 -19
3 -6 2 -14 -4 -17 -8 -5 -8 -11 0 -20 7 -8 9 -19 5 -25 -9 -15 14 -12 30 4 16
16 10 27 -11 19 -9 -3 -14 1 -14 12 0 11 5 15 15 12 17 -7 30 9 15 18 -5 3
-10 13 -10 21 0 8 4 13 9 9 5 -3 13 0 17 6 4 8 3 9 -4 5 -7 -4 -12 -3 -12 3 0
5 3 11 8 14 4 2 2 2 -5 1 -19 -5 -26 15 -13 31 8 10 9 15 2 15 -6 0 -10 9 -9
20 1 11 5 20 9 20 4 0 8 7 8 15 0 23 -20 18 -29 -7 -9 -26 -20 -12 -26 32 -2
22 1 30 11 30 11 0 13 -6 9 -20 -4 -11 -2 -20 4 -20 15 0 10 68 -6 74 -7 3
-13 0 -13 -7 0 -8 -4 -6 -10 3 -13 20 -13 33 0 25 17 -11 40 9 30 25 -7 10
-10 11 -10 3 0 -23 -17 -13 -17 10 -1 59 -3 72 -12 59 -7 -11 -10 -10 -15 3
-9 23 -8 25 8 19 13 -5 14 22 10 193 -2 109 -6 227 -9 262 -4 38 -2 68 5 76 8
9 8 15 0 20 -5 3 -10 -1 -10 -10 0 -9 -5 -13 -10 -10 -6 4 -10 14 -9 23 3 32
-1 43 -12 36 -8 -4 -8 0 0 15 7 11 8 21 4 21 -4 0 0 5 10 11 21 12 23 33 2 25
-18 -6 -21 19 -3 30 7 5 8 3 3 -6 -5 -9 -4 -11 3 -6 9 5 9 13 2 26 -15 28 -12
76 5 90 9 7 13 21 10 30 -7 22 41 64 63 55 8 -3 21 0 28 6 22 18 -12 -44 -36
-66 -21 -19 -28 -41 -8 -29 7 4 8 3 4 -5 -4 -6 -11 -9 -16 -6 -5 3 -10 -3 -12
-12 -2 -10 -6 -13 -10 -8 -3 6 2 28 13 49 10 22 17 41 15 44 -6 5 -42 -75 -50
-110 -4 -17 -2 -28 4 -28 5 0 9 3 7 8 -2 7 6 12 24 12 7 0 8 -12 5 -32 -5 -29
-5 -30 4 -9 6 13 8 31 5 40 -3 11 8 30 27 51 18 18 26 30 18 25 -11 -6 -10 -3
3 12 9 11 14 23 10 26 -3 4 -1 7 5 7 7 0 12 10 12 23 0 24 42 69 94 101 16 10
25 21 20 25 -5 3 -14 15 -20 25 -11 20 -44 26 -85 15z m-144 -218 c3 -5 2 -12
-3 -15 -5 -3 -9 1 -9 9 0 17 3 19 12 6z m-18 -273 c-3 -8 -6 -5 -6 6 -1 11 2
17 5 13 3 -3 4 -12 1 -19z m8 -30 c2 -7 6 -48 10 -91 4 -56 3 -77 -5 -72 -6 4
-10 16 -8 28 2 13 -2 21 -9 20 -8 -2 -11 18 -10 62 1 59 12 85 22 53z m35
-668 c0 -5 -4 -10 -10 -10 -5 0 -10 5 -10 10 0 6 5 10 10 10 6 0 10 -4 10 -10z
m40 -135 c4 -11 4 -25 -1 -31 -6 -8 -4 -14 6 -18 8 -3 15 -11 15 -17 0 -7 -8
-5 -19 5 -11 10 -24 15 -29 12 -13 -8 -20 23 -14 62 4 28 7 31 19 20 9 -7 19
-21 23 -33z"/>
<path d="M850 1609 c0 -5 5 -7 10 -4 6 3 10 8 10 11 0 2 -4 4 -10 4 -5 0 -10
-5 -10 -11z"/>
<path d="M830 2910 c-14 -11 -19 -20 -11 -20 8 0 1 -14 -18 -35 -43 -50 -39
-66 6 -24 49 45 54 52 40 61 -8 5 -6 9 6 14 9 3 17 10 17 15 0 14 -13 10 -40
-11z"/>
<path d="M896 2915 c4 -9 -1 -18 -11 -21 -13 -5 -14 -9 -3 -15 17 -11 78 -11
78 0 0 4 -11 6 -24 4 -25 -5 -29 8 -13 35 6 8 2 12 -12 12 -14 0 -19 -5 -15
-15z"/>
<path d="M1930 2850 c0 -5 5 -10 10 -10 6 0 10 5 10 10 0 6 -4 10 -10 10 -5 0
-10 -4 -10 -10z"/>
<path d="M880 2840 c0 -5 5 -10 10 -10 6 0 10 5 10 10 0 6 -4 10 -10 10 -5 0
-10 -4 -10 -10z"/>
<path d="M1945 2820 c3 -5 10 -10 16 -10 5 0 9 5 9 10 0 6 -7 10 -16 10 -8 0
-12 -4 -9 -10z"/>
<path d="M1978 2808 c-30 -10 -38 -28 -12 -28 8 0 12 -4 9 -10 -3 -5 -1 -10 5
-10 6 0 10 7 8 16 -2 10 3 19 10 21 6 3 12 0 12 -6 0 -6 4 -11 8 -11 13 0 10
28 -2 33 -6 2 -23 0 -38 -5z"/>
<path d="M2010 2741 c0 -6 4 -13 10 -16 6 -3 7 1 4 9 -7 18 -14 21 -14 7z"/>
<path d="M1970 2732 c0 -5 12 -14 27 -21 28 -13 28 -13 9 8 -20 22 -36 27 -36
13z"/>
<path d="M910 2681 c0 -11 -5 -23 -11 -26 -6 -4 -7 -19 -4 -36 4 -18 2 -29 -4
-29 -19 0 -30 -34 -16 -53 11 -16 13 -16 19 -2 3 9 2 13 -4 10 -14 -9 -12 2 4
28 14 22 31 127 21 127 -3 0 -5 -9 -5 -19z"/>
<path d="M1971 2683 c0 -11 3 -13 6 -5 2 6 10 9 15 6 7 -4 8 -2 4 4 -11 18
-26 14 -25 -5z"/>
<path d="M1990 2655 c0 -10 36 -47 55 -56 18 -9 17 -8 -2 9 -12 11 -20 21 -18
24 2 2 -5 9 -15 16 -11 7 -20 10 -20 7z"/>
<path d="M2050 2549 c0 -5 5 -7 10 -4 6 3 10 8 10 11 0 2 -4 4 -10 4 -5 0 -10
-5 -10 -11z"/>
<path d="M1628 2533 c7 -3 16 -2 19 1 4 3 -2 6 -13 5 -11 0 -14 -3 -6 -6z"/>
<path d="M837 2513 c-4 -3 -7 -11 -7 -17 0 -6 5 -5 12 2 6 6 9 14 7 17 -3 3
-9 2 -12 -2z"/>
<path d="M856 2495 c-9 -26 -7 -32 5 -12 6 10 9 21 6 23 -2 3 -7 -2 -11 -11z"/>
<path d="M2050 2493 c0 -6 8 -17 18 -24 16 -13 16 -13 2 6 -8 11 -16 22 -17
24 -2 2 -3 0 -3 -6z"/>
<path d="M1815 2440 c-3 -5 1 -10 9 -10 9 0 16 5 16 10 0 6 -4 10 -9 10 -6 0
-13 -4 -16 -10z"/>
<path d="M1024 2415 c-25 -19 -15 -19 27 0 25 10 29 14 13 15 -11 0 -29 -7
-40 -15z"/>
<path d="M1694 2420 c-17 -4 -36 -10 -42 -13 -5 -4 -12 -3 -14 3 -1 5 -8 -1
-14 -14 -11 -23 -11 -24 50 -20 34 2 78 6 99 7 20 2 37 0 37 -4 0 -4 9 -5 20
-2 12 3 29 -2 39 -11 25 -23 92 -30 84 -9 -4 10 -15 13 -34 11 -21 -3 -30 0
-35 14 -3 10 -17 20 -32 24 -15 3 -38 8 -52 11 -43 10 -74 11 -106 3z m-14
-30 c-20 -13 -33 -13 -25 0 3 6 14 10 23 10 15 0 15 -2 2 -10z"/>
<path d="M1100 2411 c0 -5 3 -11 8 -14 4 -2 1 -2 -7 0 -20 5 -52 -7 -46 -17 3
-5 18 -9 33 -10 50 -1 117 -8 132 -13 35 -12 83 -27 87 -27 2 0 1 6 -3 13 -6
9 -3 8 9 -1 14 -12 16 -11 14 7 0 11 -5 17 -9 15 -4 -3 -8 -1 -8 4 0 12 -135
41 -159 35 -10 -3 -22 0 -25 6 -9 13 -26 15 -26 2z"/>
<path d="M1882 2403 c15 -15 68 -28 68 -17 0 5 -65 34 -77 34 -4 0 0 -7 9 -17z"/>
<path d="M1580 2385 c0 -8 4 -15 9 -15 5 0 11 7 15 15 3 9 0 15 -9 15 -8 0
-15 -7 -15 -15z"/>
<path d="M998 2383 c7 -3 16 -2 19 1 4 3 -2 6 -13 5 -11 0 -14 -3 -6 -6z"/>
<path d="M995 2363 c-33 -8 -49 -25 -33 -34 19 -13 28 -11 28 5 0 8 6 14 13
13 32 -1 90 3 86 7 -8 7 -75 13 -94 9z"/>
<path d="M1355 2360 c3 -5 8 -10 11 -10 2 0 4 5 4 10 0 6 -5 10 -11 10 -5 0
-7 -4 -4 -10z"/>
<path d="M1615 2350 c3 -5 8 -10 11 -10 2 0 4 5 4 10 0 6 -5 10 -11 10 -5 0
-7 -4 -4 -10z"/>
<path d="M1390 2330 c0 -5 4 -10 9 -10 6 0 13 5 16 10 3 6 -1 10 -9 10 -9 0
-16 -4 -16 -10z"/>
<path d="M1511 2324 c0 -11 3 -14 6 -6 3 7 2 16 -1 19 -3 4 -6 -2 -5 -13z"/>
<path d="M1580 2321 c-8 -6 -18 -7 -24 -4 -5 4 -7 -3 -4 -15 3 -12 0 -29 -8
-39 -18 -24 -17 -33 1 -33 9 0 15 9 15 21 0 12 5 19 13 16 6 -2 38 9 69 24 32
16 61 29 65 29 8 0 -75 -54 -97 -63 -8 -3 2 -5 22 -4 27 1 38 6 43 22 6 18 8
18 12 3 2 -10 14 -18 25 -18 11 0 36 -8 56 -17 26 -12 37 -14 40 -5 5 15 38
16 47 2 4 -6 11 -7 17 -4 7 5 9 1 5 -9 -5 -13 -1 -17 17 -17 41 0 83 -29 105
-73 12 -24 21 -34 21 -24 0 32 -32 76 -64 88 -28 11 -29 13 -9 16 12 2 31 -1
42 -7 14 -7 21 -7 21 -1 0 12 -26 19 -79 23 -30 3 -36 8 -43 35 -13 49 -51 64
-146 60 -59 -3 -89 -10 -120 -27 -32 -18 -45 -21 -54 -12 -8 8 -5 14 15 21 15
6 27 13 27 16 0 8 -13 6 -30 -4z m256 -17 c19 -9 34 -23 34 -32 0 -13 -2 -13
-18 1 -10 9 -33 23 -52 31 -21 9 -28 15 -17 16 11 0 34 -7 53 -16z m-86 -13
c0 -5 -9 -11 -20 -14 -12 -3 -20 0 -20 7 0 6 9 12 20 13 11 1 20 -2 20 -6z
m63 -37 c-25 -19 -38 -17 -22 2 12 15 11 16 -9 10 -16 -5 -22 -3 -22 7 0 23
10 26 41 10 28 -14 29 -16 12 -29z"/>
<path d="M1930 2320 c0 -5 5 -10 11 -10 5 0 7 5 4 10 -3 6 -8 10 -11 10 -2 0
-4 -4 -4 -10z"/>
<path d="M710 2300 c-10 -6 -14 -27 -15 -68 0 -33 4 -58 8 -55 4 3 7 -17 6
-44 -3 -50 18 -163 29 -163 4 0 8 -10 8 -23 3 -47 64 -141 64 -98 0 6 -7 11
-15 11 -8 0 -15 7 -15 15 0 9 -7 30 -16 47 -15 28 -15 30 0 25 21 -8 20 -2 -6
34 -20 27 -23 44 -25 152 -2 101 -5 123 -17 125 -22 5 -20 19 4 27 11 3 20 11
20 16 0 11 -11 11 -30 -1z"/>
<path d="M965 2300 c3 -5 14 -10 23 -10 15 0 15 2 2 10 -20 13 -33 13 -25 0z"/>
<path d="M1065 2293 c-36 -19 -54 -42 -55 -65 0 -10 -3 -17 -7 -16 -18 5 -82
-14 -93 -27 -11 -13 -8 -13 22 -1 19 8 53 13 78 10 30 -2 40 -1 30 6 -11 7 -8
11 15 20 15 6 34 18 41 28 8 11 13 12 14 5 0 -25 70 -11 70 14 0 8 5 11 10 8
6 -4 8 -11 5 -16 -4 -5 -2 -9 4 -9 5 0 11 6 14 13 3 9 8 8 18 -5 8 -9 28 -19
46 -23 26 -5 31 -3 29 12 -3 22 -95 70 -105 55 -4 -7 -12 -7 -20 -3 -9 6 -33
-1 -68 -19 -71 -37 -83 -41 -83 -30 0 5 21 21 48 34 26 14 40 25 32 25 -8 0
-28 -7 -45 -16z m200 -24 c34 -17 36 -19 11 -14 -16 3 -39 13 -50 21 -30 20
-8 17 39 -7z m-121 -10 c-3 -5 -10 -7 -15 -3 -5 3 -7 10 -3 15 3 5 10 7 15 3
5 -3 7 -10 3 -15z"/>
<path d="M1960 2290 c8 -5 22 -9 30 -9 10 0 8 3 -5 9 -27 12 -43 12 -25 0z"/>
<path d="M1355 2280 c-3 -5 -1 -10 4 -10 6 0 11 5 11 10 0 6 -2 10 -4 10 -3 0
-8 -4 -11 -10z"/>
<path d="M1480 2281 c0 -5 5 -13 10 -16 6 -3 10 -2 10 4 0 5 -4 13 -10 16 -5
3 -10 2 -10 -4z"/>
<path d="M1910 2270 c0 -5 5 -10 10 -10 6 0 10 5 10 10 0 6 -4 10 -10 10 -5 0
-10 -4 -10 -10z"/>
<path d="M1960 2260 c-9 -6 -10 -10 -3 -10 6 0 15 5 18 10 8 12 4 12 -15 0z"/>
<path d="M920 2236 c0 -2 7 -7 16 -10 8 -3 12 -2 9 4 -6 10 -25 14 -25 6z"/>
<path d="M1170 2226 c0 -2 7 -7 16 -10 8 -3 12 -2 9 4 -6 10 -25 14 -25 6z"/>
<path d="M1625 2220 c-3 -5 -1 -11 5 -15 5 -3 10 -4 10 -1 0 4 17 -3 38 -14
30 -17 53 -20 125 -19 99 2 109 -3 159 -80 15 -25 28 -39 28 -32 0 23 -29 68
-64 98 -31 28 -40 31 -108 31 -49 -1 -92 6 -130 20 -32 11 -60 17 -63 12z"/>
<path d="M1230 2212 c0 -13 -68 -31 -136 -38 -80 -7 -81 -14 -2 -14 37 0 93 8
127 19 33 10 63 16 66 13 3 -3 5 -1 5 5 0 12 -23 23 -46 23 -8 0 -14 -4 -14
-8z"/>
<path d="M940 2155 c-19 -14 -30 -25 -24 -25 10 1 73 50 63 50 -3 0 -20 -11
-39 -25z"/>
<path d="M1505 2170 c-3 -5 -1 -10 4 -10 6 0 11 5 11 10 0 6 -2 10 -4 10 -3 0
-8 -4 -11 -10z"/>
<path d="M975 2135 c-16 -14 -26 -25 -21 -25 4 0 21 11 38 25 16 14 26 25 21
25 -4 -1 -21 -12 -38 -25z"/>
<path d="M1280 2151 c0 -6 4 -12 8 -15 5 -3 9 1 9 9 0 8 -4 15 -9 15 -4 0 -8
-4 -8 -9z"/>
<path d="M1380 2120 c0 -5 5 -10 11 -10 5 0 7 5 4 10 -3 6 -8 10 -11 10 -2 0
-4 -4 -4 -10z"/>
<path d="M1431 2104 c0 -11 3 -14 6 -6 3 7 2 16 -1 19 -3 4 -6 -2 -5 -13z"/>
<path d="M1540 2100 c0 -5 5 -10 11 -10 5 0 7 5 4 10 -3 6 -8 10 -11 10 -2 0
-4 -4 -4 -10z"/>
<path d="M930 2079 c-7 -11 -10 -23 -7 -25 2 -2 9 7 15 21 14 30 7 33 -8 4z"/>
<path d="M1568 2070 c-7 -20 9 -50 27 -50 8 0 15 7 15 15 0 19 17 19 36 0 28
-28 12 -46 -56 -67 -36 -11 -72 -26 -81 -34 -8 -8 -22 -14 -31 -14 -8 0 -27
-11 -42 -25 -14 -13 -26 -22 -26 -19 0 3 -10 -4 -22 -16 -27 -25 -38 -26 -31
-1 3 11 13 21 24 24 10 3 19 11 19 17 0 9 -4 9 -16 -1 -14 -11 -15 -10 -12 7
5 28 -47 33 -55 5 -6 -24 -3 -25 24 -11 13 8 19 7 19 -1 0 -6 -9 -13 -20 -16
-11 -3 -20 -9 -20 -14 0 -5 7 -6 15 -3 11 4 13 2 9 -9 -7 -19 -34 -31 -34 -15
0 7 -5 6 -15 -2 -11 -9 -15 -9 -15 -1 0 6 7 28 15 48 17 41 19 57 6 48 -5 -3
-12 -19 -16 -36 -4 -17 -13 -41 -19 -54 l-13 -25 -10 23 c-6 12 -15 33 -21 47
-8 18 -11 20 -11 8 -1 -10 -6 -18 -12 -18 -5 0 -7 -5 -3 -11 4 -8 9 -7 15 2 6
10 9 6 9 -14 0 -20 -4 -27 -16 -25 -10 2 -19 -4 -21 -12 -4 -13 -3 -13 6 0 6
8 11 10 11 4 0 -6 7 -11 15 -11 8 0 12 4 9 9 -3 4 0 8 5 8 6 0 11 -5 11 -11 0
-8 13 -9 41 -5 25 4 38 3 35 -3 -4 -5 -2 -12 4 -16 5 -3 10 -21 10 -40 0 -29
-3 -33 -22 -30 -49 7 -68 18 -74 42 -6 21 -11 24 -36 19 -19 -4 -27 -2 -22 5
5 8 1 8 -14 0 -11 -6 -22 -17 -26 -26 -3 -8 -12 -15 -20 -15 -7 0 -17 -7 -20
-16 -4 -10 -13 -13 -25 -9 -11 3 -22 1 -26 -5 -3 -5 1 -10 9 -10 9 0 16 -4 16
-9 0 -14 -26 -32 -35 -23 -5 4 -5 1 0 -7 5 -9 2 -19 -10 -28 -11 -7 -14 -13
-8 -13 17 0 61 39 68 60 4 11 11 18 16 14 5 -3 8 -1 7 4 -2 6 1 10 5 10 5 1
17 10 26 21 23 26 21 26 89 -5 71 -32 239 -44 312 -22 40 13 45 17 43 43 -2
28 29 80 41 68 3 -3 6 -2 6 4 0 5 -9 18 -20 28 -15 14 -20 15 -20 4 -1 -10 -4
-9 -14 4 -13 16 -14 16 -20 1 -7 -19 12 -36 32 -29 15 5 16 -11 2 -20 -6 -4
-17 -1 -25 5 -11 9 -15 9 -15 1 0 -6 5 -11 11 -11 6 0 9 -16 7 -37 -2 -30 -7
-37 -20 -35 -10 2 -18 -2 -18 -8 0 -5 -13 -10 -30 -10 -17 0 -30 5 -30 13 0 8
-3 8 -8 1 -10 -15 -42 -25 -55 -17 -6 4 -23 7 -37 7 -20 1 -25 6 -25 28 -1 15
-4 30 -8 34 -4 4 -7 10 -7 13 0 9 62 35 85 36 11 0 26 4 34 9 8 5 16 4 22 -5
7 -11 9 -10 9 4 0 9 -6 17 -14 17 -8 0 -18 5 -21 10 -10 17 15 40 40 38 17 -2
22 -8 21 -25 0 -13 -5 -23 -9 -23 -5 0 -5 -5 -2 -10 4 -6 10 -8 15 -5 4 3 7
-3 6 -12 0 -9 5 -18 12 -20 17 -6 15 32 -2 46 -18 15 -14 60 5 72 24 15 33 10
16 -9 -12 -13 -13 -21 -6 -32 9 -12 10 -12 5 3 -5 16 3 21 22 15 4 -2 6 -6 5
-10 -2 -5 4 -8 12 -8 9 0 12 6 8 17 -5 12 -3 14 8 7 8 -5 16 -9 19 -10 21 -4
39 -18 34 -26 -3 -5 -12 -1 -20 9 -13 17 -13 17 -14 -3 0 -12 8 -31 19 -42 22
-27 35 -29 22 -4 -6 11 -6 24 -1 32 11 17 -3 36 -42 56 -18 9 -28 11 -28 4 0
-6 -4 -8 -10 -5 -20 12 -9 22 32 31 55 12 78 50 53 88 -12 18 -24 24 -50 22
-19 -1 -36 3 -38 9 -2 5 -6 3 -9 -5z m-148 -220 c0 -5 -5 -10 -11 -10 -5 0 -7
5 -4 10 3 6 8 10 11 10 2 0 4 -4 4 -10z"/>
<path d="M2057 2050 c-7 -27 -1 -39 12 -24 5 5 5 18 2 28 -7 18 -8 18 -14 -4z"/>
<path d="M1269 2043 c-13 -15 -12 -15 8 -5 27 15 36 15 28 2 -3 -5 3 -10 13
-10 11 0 22 7 26 15 8 22 -57 20 -75 -2z"/>
<path d="M1960 2057 c0 -14 24 -57 32 -57 5 0 1 12 -9 28 -22 35 -23 36 -23
29z"/>
<path d="M1215 2030 c-3 -5 -2 -10 4 -10 5 0 13 5 16 10 3 6 2 10 -4 10 -5 0
-13 -4 -16 -10z"/>
<path d="M1695 2020 c3 -5 0 -10 -7 -12 -9 -3 -9 -6 0 -12 7 -4 12 -2 12 5 0
7 10 -3 23 -21 12 -19 34 -37 50 -41 38 -10 34 4 -8 24 -20 9 -33 22 -30 29 3
7 -6 18 -20 25 -14 6 -23 7 -20 3z"/>
<path d="M2021 2004 c0 -11 3 -14 6 -6 3 7 2 16 -1 19 -3 4 -6 -2 -5 -13z"/>
<path d="M920 2000 c0 -5 5 -10 11 -10 5 0 7 5 4 10 -3 6 -8 10 -11 10 -2 0
-4 -4 -4 -10z"/>
<path d="M1194 1995 c-4 -8 -34 -35 -68 -60 -33 -25 -66 -49 -72 -54 -5 -4
-20 -14 -32 -20 -12 -6 -27 -21 -33 -34 l-12 -22 24 21 c39 34 44 34 46 1 1
-26 0 -28 -7 -12 -8 21 -8 21 -25 -31 -3 -10 -12 -14 -25 -11 -11 3 -26 -3
-36 -14 -16 -17 -16 -19 -1 -19 10 0 17 5 17 11 0 5 5 7 11 4 6 -4 8 -13 5
-21 -4 -11 -2 -11 14 -2 10 7 17 15 14 19 -8 13 37 48 55 42 10 -3 12 -2 5 4
-6 4 -11 21 -10 38 1 22 9 35 34 50 60 35 111 85 109 106 -2 23 -6 24 -13 4z"/>
<path d="M1250 1991 c13 -25 18 -28 68 -40 24 -5 42 -5 42 0 0 5 -18 12 -41
15 -23 4 -46 15 -52 25 -16 25 -31 24 -17 0z"/>
<path d="M1506 1975 c-3 -8 -1 -15 4 -15 6 0 10 7 10 15 0 8 -2 15 -4 15 -2 0
-6 -7 -10 -15z"/>
<path d="M1960 1969 c0 -5 5 -7 10 -4 6 3 10 8 10 11 0 2 -4 4 -10 4 -5 0 -10
-5 -10 -11z"/>
<path d="M980 1949 c0 -5 5 -7 10 -4 6 3 10 8 10 11 0 2 -4 4 -10 4 -5 0 -10
-5 -10 -11z"/>
<path d="M1400 1935 c33 -19 50 -18 26 0 -11 8 -27 15 -35 15 -10 -1 -7 -6 9
-15z"/>
<path d="M1910 1935 c7 -9 15 -13 17 -11 7 7 -7 26 -19 26 -6 0 -6 -6 2 -15z"/>
<path d="M985 1919 c-4 -6 -13 -8 -21 -5 -8 3 -14 1 -14 -4 0 -16 37 -11 44 5
6 17 0 20 -9 4z"/>
<path d="M1675 1910 c21 -24 26 -25 19 -6 -3 8 -13 17 -22 21 -13 5 -13 2 3
-15z"/>
<path d="M856 1912 c-2 -4 -1 -14 5 -22 7 -12 9 -10 9 8 0 23 -5 28 -14 14z"/>
<path d="M1735 1880 c10 -47 14 -53 31 -39 16 13 9 33 -8 23 -6 -4 -9 -3 -5 2
3 5 -2 18 -10 29 -14 19 -14 18 -8 -15z"/>
<path d="M1840 1895 c0 -8 4 -15 10 -15 5 0 7 7 4 15 -4 8 -8 15 -10 15 -2 0
-4 -7 -4 -15z"/>
<path d="M907 1894 c-4 -4 -7 -17 -7 -28 1 -19 1 -20 11 -3 11 19 8 43 -4 31z"/>
<path d="M1257 1893 c-4 -3 -7 -15 -7 -26 0 -25 9 -17 15 12 4 22 2 25 -8 14z"/>
<path d="M1807 1880 c-4 -17 -2 -29 8 -36 8 -6 15 -16 15 -21 0 -16 -43 -24
-55 -11 -7 8 -5 9 7 5 10 -3 20 -3 22 2 3 4 -10 8 -29 8 -19 0 -35 -4 -35 -9
0 -4 6 -8 14 -8 8 0 16 -4 18 -9 2 -5 16 -13 32 -17 18 -4 27 -3 23 3 -4 5 3
20 14 31 25 27 33 28 19 3 -17 -32 -13 -53 8 -42 14 7 16 19 13 58 -3 26 -6
39 -9 29 -3 -15 -6 -16 -13 -5 -7 11 -9 10 -9 -4 0 -29 -24 -14 -30 19 l-6 29
-7 -25z"/>
<path d="M1961 1874 c0 -11 3 -14 6 -6 3 7 2 16 -1 19 -3 4 -6 -2 -5 -13z"/>
<path d="M1115 1870 c-3 -5 -1 -18 4 -27 9 -16 10 -14 11 10 0 28 -5 34 -15
17z"/>
<path d="M871 1854 c0 -11 3 -14 6 -6 3 7 2 16 -1 19 -3 4 -6 -2 -5 -13z"/>
<path d="M1676 1861 c-4 -5 2 -8 11 -7 10 2 24 -6 31 -18 12 -20 12 -20 10 -1
-4 31 -39 48 -52 26z"/>
<path d="M926 1838 c-24 -33 -19 -45 5 -14 12 15 19 29 16 32 -3 3 -12 -5 -21
-18z"/>
<path d="M1094 1828 c3 -13 6 -34 6 -48 0 -22 3 -21 39 20 42 48 48 66 10 31
-23 -21 -40 -27 -38 -13 3 18 -2 32 -12 32 -7 0 -9 -9 -5 -22z"/>
<path d="M1680 1826 c0 -2 7 -6 15 -10 8 -3 15 -1 15 4 0 6 -7 10 -15 10 -8 0
-15 -2 -15 -4z"/>
<path d="M1960 1819 c0 -5 8 -13 18 -16 9 -4 20 -11 24 -17 7 -10 9 -7 8 22 0
11 -50 22 -50 11z"/>
<path d="M1471 1806 c-9 -10 -20 -12 -34 -7 -12 4 -31 5 -43 2 -16 -5 -19 -11
-13 -31 4 -14 8 -20 8 -15 3 27 18 36 44 26 18 -7 36 -7 54 0 22 8 30 7 40 -7
7 -10 13 -13 13 -7 0 6 3 18 6 26 4 12 0 14 -15 10 -12 -3 -27 0 -35 6 -10 8
-16 8 -25 -3z"/>
<path d="M760 1801 c0 -6 4 -13 10 -16 6 -3 7 1 4 9 -7 18 -14 21 -14 7z"/>
<path d="M918 1788 c-22 -22 -22 -28 -3 -28 8 0 14 5 13 12 -2 7 3 12 11 13 8
0 16 7 18 15 4 12 3 12 -5 1 -5 -7 -11 -9 -13 -4 -2 5 -12 1 -21 -9z"/>
<path d="M1612 1799 c3 -8 1 -26 -3 -41 -7 -24 -5 -28 14 -28 26 0 127 46 127
57 0 4 -12 8 -27 8 -16 1 -48 5 -72 9 -35 7 -42 5 -39 -5z m38 -16 c0 -15 2
-16 10 -3 8 12 10 10 10 -9 0 -16 -4 -22 -15 -17 -8 3 -15 0 -15 -6 0 -9 -3
-9 -11 -1 -12 12 -3 53 12 53 5 0 9 -8 9 -17z"/>
<path d="M1932 1786 c-7 -16 -10 -31 -7 -34 3 -3 5 1 6 9 0 8 6 -1 13 -20 10
-27 14 -31 19 -18 3 9 2 17 -3 17 -5 0 -10 17 -12 38 l-4 37 -12 -29z"/>
<path d="M1248 1781 c4 -10 7 -11 10 -3 6 19 20 14 27 -9 4 -11 9 -18 12 -16
3 3 2 15 -2 26 -4 14 -14 20 -30 19 -16 -2 -21 -7 -17 -17z"/>
<path d="M1895 1780 c-3 -5 -1 -10 4 -10 6 0 11 5 11 10 0 6 -2 10 -4 10 -3 0
-8 -4 -11 -10z"/>
<path d="M1070 1761 c-7 -15 -7 -21 0 -21 12 0 25 28 17 36 -3 3 -10 -4 -17
-15z"/>
<path d="M1966 1767 c2 -7 13 -18 24 -25 17 -10 18 -9 13 6 -7 17 -22 32 -35
32 -4 0 -5 -6 -2 -13z"/>
<path d="M1869 1767 c-9 -27 -6 -47 6 -47 9 0 12 6 9 15 -4 8 -1 15 4 15 6 0
14 -9 17 -20 3 -11 11 -20 16 -20 22 0 -4 42 -33 53 -10 3 -18 5 -19 4z"/>
<path d="M1796 1747 c3 -8 -1 -21 -8 -28 -7 -8 -13 -20 -12 -26 1 -7 2 -21 3
-30 1 -14 3 -15 14 -4 9 10 9 15 0 18 -9 3 -9 10 -1 29 6 13 14 24 17 24 10 0
31 -62 25 -71 -3 -5 1 -9 9 -9 8 0 18 8 21 17 4 10 4 14 0 10 -4 -3 -17 12
-29 35 -21 40 -52 67 -39 35z"/>
<path d="M1836 1752 c-2 -4 -1 -14 4 -22 7 -11 9 -9 7 8 -1 24 -3 26 -11 14z"/>
<path d="M901 1734 c0 -11 3 -14 6 -6 3 7 2 16 -1 19 -3 4 -6 -2 -5 -13z"/>
<path d="M1017 1722 c-16 -18 -14 -32 5 -32 5 0 6 5 3 10 -4 6 -1 17 5 25 18
22 6 18 -13 -3z"/>
<path d="M940 1713 c0 -5 7 -17 15 -27 13 -17 15 -18 15 -3 0 9 -6 17 -12 17
-9 0 -8 4 2 10 13 8 12 10 -2 10 -10 0 -18 -3 -18 -7z"/>
<path d="M1625 1700 c-3 -5 -2 -10 4 -10 5 0 13 5 16 10 3 6 2 10 -4 10 -5 0
-13 -4 -16 -10z"/>
<path d="M1894 1694 c3 -9 6 -18 6 -20 0 -2 4 -4 9 -4 5 0 7 9 4 20 -3 11 -10
20 -15 20 -6 0 -7 -7 -4 -16z"/>
<path d="M1926 1687 c3 -10 9 -15 12 -12 3 3 0 11 -7 18 -10 9 -11 8 -5 -6z"/>
<path d="M1956 1683 c-6 -14 -5 -15 5 -6 7 7 10 15 7 18 -3 3 -9 -2 -12 -12z"/>
<path d="M980 1681 c0 -5 5 -13 10 -16 6 -3 10 -2 10 4 0 5 -4 13 -10 16 -5 3
-10 2 -10 -4z"/>
<path d="M1280 1680 c-9 -6 -10 -10 -3 -10 6 0 15 5 18 10 8 12 4 12 -15 0z"/>
<path d="M2100 1680 c0 -5 5 -10 11 -10 5 0 7 5 4 10 -3 6 -8 10 -11 10 -2 0
-4 -4 -4 -10z"/>
<path d="M1070 1643 c-19 -20 -35 -42 -36 -51 -2 -9 7 -3 21 14 21 24 24 26
25 10 0 -17 15 -15 15 2 0 4 5 14 10 22 12 19 16 40 7 39 -4 -1 -23 -17 -42
-36z"/>
<path d="M1545 1670 c3 -5 12 -7 20 -3 21 7 19 13 -6 13 -11 0 -18 -4 -14 -10z"/>
<path d="M1810 1669 c0 -5 5 -7 10 -4 6 3 10 8 10 11 0 2 -4 4 -10 4 -5 0 -10
-5 -10 -11z"/>
<path d="M915 1659 c-10 -15 3 -25 16 -12 7 7 7 13 1 17 -6 3 -14 1 -17 -5z"/>
<path d="M1181 1644 c0 -11 3 -14 6 -6 3 7 2 16 -1 19 -3 4 -6 -2 -5 -13z"/>
<path d="M1880 1651 c0 -6 4 -13 10 -16 6 -3 7 1 4 9 -7 18 -14 21 -14 7z"/>
<path d="M1936 1644 c-8 -20 -8 -24 2 -24 4 0 8 9 9 20 2 24 -3 26 -11 4z"/>
<path d="M960 1639 c-13 -9 -12 -10 3 -5 15 5 16 3 7 -14 -6 -11 -13 -20 -16
-20 -3 0 -2 5 2 12 4 7 3 8 -4 4 -17 -10 -15 -26 3 -26 14 0 35 29 35 49 0 14
-11 14 -30 0z"/>
<path d="M1755 1639 c-4 -6 -5 -12 -2 -15 2 -3 7 2 10 11 7 17 1 20 -8 4z"/>
<path d="M1285 1630 c3 -5 8 -10 11 -10 2 0 4 5 4 10 0 6 -5 10 -11 10 -5 0
-7 -4 -4 -10z"/>
<path d="M1870 1621 c5 -11 10 -31 10 -45 0 -14 5 -26 10 -26 6 0 10 5 10 10
0 16 -28 80 -35 80 -3 0 -1 -9 5 -19z"/>
<path d="M1720 1623 c0 -7 5 -15 10 -18 6 -4 7 -13 1 -24 -12 -21 -2 -38 34
-57 42 -22 43 -8 1 17 -31 18 -34 23 -25 41 9 16 7 24 -5 36 -10 10 -16 12
-16 5z"/>
<path d="M1839 1617 c6 -8 8 -16 5 -19 -2 -3 2 -8 11 -11 18 -7 19 -3 5 24 -6
10 -16 19 -22 19 -7 0 -7 -4 1 -13z"/>
<path d="M1132 1613 c-12 -2 -30 -16 -39 -29 -9 -14 -22 -23 -29 -20 -19 7
-37 -20 -32 -49 3 -13 2 -22 -2 -20 -24 15 -46 -89 -25 -118 18 -24 25 -21 24
11 0 15 -3 21 -6 15 -10 -27 -21 -11 -17 25 9 61 12 66 29 52 12 -10 15 -9 15
4 0 9 5 16 10 16 6 0 10 8 10 18 0 14 -2 15 -10 2 -12 -20 -21 -9 -13 18 4 17
9 20 18 12 10 -8 18 -3 35 20 12 16 25 28 30 25 11 -7 40 5 40 16 0 5 -3 8 -7
8 -5 -1 -18 -4 -31 -6z"/>
<path d="M1355 1610 c-3 -5 -3 -15 1 -22 5 -8 0 -9 -17 -5 -13 4 -28 7 -32 7
-5 0 -5 5 -2 10 3 6 -1 10 -9 10 -22 0 -21 -3 16 -44 22 -25 40 -36 60 -36 20
0 28 -5 28 -17 1 -17 1 -17 11 0 5 9 16 17 24 17 20 0 30 21 14 31 -10 6 -11
9 -1 9 6 0 12 5 12 10 0 6 -7 10 -15 10 -14 0 -19 -12 -16 -32 2 -14 -57 -8
-62 6 -7 17 1 26 20 26 8 0 11 -4 8 -10 -11 -18 11 -10 30 10 16 18 8 30 -8
13 -13 -13 -58 -9 -53 4 6 15 0 17 -9 3z m5 -50 c0 -5 -6 -10 -14 -10 -8 0
-18 5 -21 10 -3 6 3 10 14 10 12 0 21 -4 21 -10z"/>
<path d="M1791 1598 c11 -13 32 -38 46 -55 24 -31 53 -47 36 -20 -4 6 -7 21
-5 32 2 20 2 20 -7 0 -8 -19 -8 -19 -15 3 -4 12 -11 22 -16 22 -5 0 -12 9 -15
20 -4 11 -15 20 -26 20 -19 0 -19 -1 2 -22z"/>
<path d="M1907 1603 c13 -38 43 -58 43 -30 0 14 -31 47 -43 47 -3 0 -4 -8 0
-17z"/>
<path d="M1250 1600 c0 -5 5 -10 11 -10 5 0 7 5 4 10 -3 6 -8 10 -11 10 -2 0
-4 -4 -4 -10z"/>
<path d="M1470 1587 c0 -11 3 -18 6 -14 4 3 22 0 40 -8 40 -17 48 1 12 25 -34
22 -58 21 -58 -3z m40 3 c0 -5 -2 -10 -4 -10 -3 0 -8 5 -11 10 -3 6 -1 10 4
10 6 0 11 -4 11 -10z"/>
<path d="M1572 1598 c9 -7 26 -24 37 -38 20 -25 20 -25 14 -2 -3 12 -15 29
-26 37 -26 18 -47 20 -25 3z"/>
<path d="M1680 1603 c0 -5 7 -18 15 -29 12 -16 14 -16 15 -3 0 9 -7 22 -15 29
-8 7 -15 8 -15 3z"/>
<path d="M977 1564 c-15 -14 -27 -30 -27 -37 1 -7 6 -5 14 5 15 20 27 14 19
-10 -4 -14 -3 -15 5 -2 6 8 8 18 5 24 -3 5 2 15 11 22 9 6 13 15 8 18 -4 2
-20 -6 -35 -20z"/>
<path d="M1770 1572 c0 -13 6 -22 14 -22 8 0 22 -10 30 -22 9 -12 18 -20 20
-17 3 3 -10 22 -29 44 -31 34 -35 36 -35 17z"/>
<path d="M1109 1551 c-16 -28 -16 -28 5 -28 11 0 29 10 39 23 22 30 15 31 -13
2 -15 -16 -20 -18 -20 -7 0 8 5 20 12 27 7 7 8 12 3 12 -6 0 -17 -13 -26 -29z"/>
<path d="M1180 1570 c0 -5 5 -10 11 -10 5 0 7 5 4 10 -3 6 -8 10 -11 10 -2 0
-4 -4 -4 -10z"/>
<path d="M2061 1573 c-1 -7 0 -15 2 -17 1 -2 -7 -13 -17 -25 -11 -12 -17 -24
-13 -27 3 -3 10 4 16 15 7 13 18 18 29 15 13 -5 14 -4 4 4 -8 5 -13 12 -12 16
1 4 -1 12 -3 19 -4 9 -6 9 -6 0z"/>
<path d="M1230 1551 c0 -17 -5 -21 -25 -17 -17 3 -29 -2 -38 -15 -8 -10 -17
-16 -22 -11 -5 4 -5 2 -1 -5 4 -7 -6 -21 -23 -34 -21 -15 -30 -30 -29 -46 1
-13 6 -23 11 -23 5 0 7 7 3 15 -4 11 1 15 19 15 14 0 25 -5 25 -11 0 -5 -4 -7
-10 -4 -5 3 -7 0 -4 -8 5 -13 -27 -31 -49 -28 -5 1 -6 -3 -3 -8 4 -5 2 -12 -4
-16 -15 -9 -12 -22 5 -22 8 0 12 4 10 7 -3 4 11 18 30 31 18 13 36 32 39 42 2
11 10 16 15 12 6 -3 23 3 37 14 29 23 25 28 -9 9 -12 -7 -30 -13 -41 -15 -16
-3 -17 -1 -6 12 7 8 16 13 20 10 5 -3 11 -1 15 5 10 15 -18 12 -43 -6 -31 -22
-27 -5 9 34 29 31 47 42 34 22 -3 -5 1 -10 9 -10 8 0 20 9 26 20 7 12 16 18
23 13 7 -4 5 2 -3 13 -8 10 -16 21 -17 23 -2 2 -3 -6 -3 -18z"/>
<path d="M1495 1550 c-4 -6 -11 -8 -16 -5 -5 4 -9 1 -9 -4 0 -15 27 -14 33 2
4 8 8 9 14 1 4 -6 18 -16 30 -23 15 -7 20 -17 17 -29 -5 -15 -4 -15 6 1 14 21
5 50 -12 45 -7 -3 -19 1 -26 9 -16 16 -29 17 -37 3z"/>
<path d="M1913 1536 c4 -11 1 -13 -10 -9 -12 5 -14 3 -7 -8 4 -8 9 -20 10 -27
4 -21 14 -27 14 -8 0 9 7 28 16 41 16 24 15 25 -6 25 -15 0 -20 -5 -17 -14z"/>
<path d="M1690 1531 c0 -6 5 -13 10 -16 6 -4 8 -10 6 -14 -3 -4 1 -8 8 -8 11
0 12 5 3 24 -10 23 -27 31 -27 14z"/>
<path d="M930 1516 c0 -21 11 -46 20 -46 18 0 17 28 -1 43 -15 14 -19 14 -19
3z"/>
<path d="M1730 1515 c0 -1 13 -13 29 -28 21 -18 31 -22 34 -13 3 7 -9 19 -29
28 -19 9 -34 15 -34 13z"/>
<path d="M1082 1487 c-23 -24 -29 -47 -13 -47 5 0 12 11 15 25 4 14 11 24 17
22 7 -1 14 4 16 11 7 20 -12 14 -35 -11z"/>
<path d="M1230 1493 c-13 -15 -12 -16 4 -10 10 4 20 7 22 7 2 0 4 5 4 10 0 15
-13 12 -30 -7z"/>
<path d="M1345 1500 c-3 -5 1 -10 9 -10 9 0 16 5 16 10 0 6 -4 10 -9 10 -6 0
-13 -4 -16 -10z"/>
<path d="M1940 1486 c0 -9 7 -19 15 -22 9 -4 15 -19 15 -35 0 -16 5 -29 10
-29 6 0 10 -4 10 -9 0 -5 -8 -8 -17 -7 -16 1 -18 -10 -21 -89 -1 -49 -5 -97
-9 -105 -3 -8 -7 -23 -8 -32 -1 -14 1 -15 12 -7 19 16 -13 -58 -41 -96 -13
-16 -28 -40 -35 -52 -10 -19 -9 -23 5 -23 9 0 18 9 21 20 3 11 9 20 13 20 15
0 21 -37 11 -64 -14 -35 -4 -33 41 11 21 20 38 32 38 25 0 -11 -15 -27 -79
-85 l-31 -29 0 24 c0 13 -6 30 -12 37 -11 12 -9 13 7 7 17 -5 17 -3 -4 14 -22
19 -24 19 -37 3 -7 -10 -14 -28 -14 -40 0 -13 -4 -23 -9 -23 -5 0 -24 -14 -42
-31 -36 -34 -68 -53 -76 -46 -2 3 7 13 21 22 14 10 26 22 26 27 0 6 -19 -5
-43 -24 -62 -51 -109 -78 -137 -78 -20 0 -22 -2 -10 -10 13 -8 12 -11 -4 -23
-15 -11 -17 -21 -12 -52 6 -31 5 -37 -8 -32 -9 4 -13 1 -10 -7 6 -16 -72 -86
-97 -86 -15 0 -28 -17 -51 -65 -17 -37 -27 -69 -24 -73 9 -8 26 19 20 30 -11
17 9 7 27 -15 l19 -22 -6 26 c-6 28 24 94 43 94 6 0 34 22 63 49 36 34 50 54
47 67 -5 18 3 23 30 20 6 -1 9 7 6 17 -5 21 23 56 38 47 5 -4 9 -1 9 4 0 6 7
11 15 11 19 0 19 2 -5 -45 -11 -21 -46 -60 -78 -86 -63 -51 -80 -83 -101 -195
-14 -78 -15 -194 0 -194 6 0 9 7 5 15 -3 9 0 15 9 15 8 0 15 -9 15 -20 0 -13
-7 -20 -19 -20 -18 0 -20 -9 -23 -105 l-3 -105 240 0 240 0 -3 106 -3 106
-102 -3 c-56 -1 -136 -2 -177 -1 l-76 2 4 41 4 41 102 -5 c175 -10 211 -25 46
-20 -80 3 -142 2 -139 -1 11 -11 48 -15 165 -17 63 -1 116 -4 118 -8 3 -4 17
-6 32 -6 27 2 27 4 30 66 9 214 14 288 20 302 4 12 1 17 -11 17 -11 0 -15 -5
-11 -16 3 -8 2 -45 -4 -82 -5 -37 -10 -113 -11 -169 -2 -78 -6 -103 -16 -103
-10 0 -12 22 -8 107 7 140 13 213 21 241 6 21 4 22 -20 16 -33 -8 -35 13 -2
25 13 5 26 19 29 30 3 12 11 21 17 21 7 0 10 -7 6 -15 -3 -8 -1 -15 4 -15 6 0
10 11 10 23 0 13 9 32 20 42 11 10 20 26 20 37 0 19 48 118 57 118 12 0 -10
-88 -31 -125 -20 -34 -25 -59 -30 -170 -4 -71 -9 -173 -13 -225 -3 -52 -6
-152 -6 -222 1 -110 -1 -128 -16 -131 -9 -3 96 -5 232 -6 l248 -1 -3 74 -3 74
-65 7 c-36 3 -87 9 -115 11 -171 18 -265 36 -265 51 0 16 -6 15 83 3 147 -21
149 -21 145 -9 -2 7 -36 13 -86 15 -46 2 -97 11 -115 19 l-32 15 50 -5 c28 -2
97 -7 155 -11 102 -7 119 -8 168 -12 14 -1 21 -6 16 -13 -5 -8 -29 -10 -75 -6
-38 3 -69 2 -69 -2 0 -9 148 -26 156 -19 2 3 7 52 10 109 4 79 2 118 -10 163
-16 61 -14 89 3 43 16 -41 41 -175 36 -189 -9 -24 -13 -136 -5 -148 9 -14 20
63 20 134 0 28 -9 91 -19 140 -18 89 -18 90 -55 102 -20 8 -56 26 -80 42 -41
28 -88 37 -241 47 -18 1 -30 7 -30 16 0 18 62 23 140 10 55 -8 75 -7 64 3 -2
2 -48 10 -101 17 -54 7 -98 17 -98 21 0 11 27 10 113 -2 108 -16 115 -18 128
-43 11 -20 11 -21 -5 -8 -9 8 -19 12 -22 9 -2 -3 7 -13 22 -23 15 -9 23 -12
20 -6 -4 6 0 11 9 11 11 0 15 -5 12 -14 -6 -14 37 -46 79 -60 18 -5 19 3 19
170 0 171 -1 175 -22 180 -24 6 -36 37 -20 53 16 16 27 13 21 -4 -4 -9 1 -17
12 -21 11 -3 28 -9 39 -14 11 -4 45 -13 75 -20 30 -7 60 -19 68 -26 7 -8 19
-14 26 -14 8 0 19 -7 26 -15 7 -8 16 -12 21 -9 5 3 9 1 9 -4 0 -5 6 -9 13 -9
6 0 39 -13 72 -29 58 -27 67 -30 92 -33 19 -2 27 -41 24 -129 -1 -57 1 -82 8
-77 7 3 11 43 11 94 0 70 -4 92 -18 107 -19 21 -56 44 -71 44 -6 0 -70 29
-142 65 -73 36 -142 68 -153 71 -11 4 -80 35 -153 70 -73 35 -134 64 -137 64
-3 0 -27 14 -53 30 -26 17 -53 28 -59 26 -6 -2 -17 8 -24 22 -7 15 -15 22 -17
15 -6 -17 15 -53 30 -53 7 0 23 -14 36 -30 12 -17 26 -28 32 -25 5 4 9 2 9 -3
0 -19 -14 -21 -32 -5 -17 15 -18 15 -18 -8 0 -13 -3 -34 -6 -47 -7 -23 -7 -23
-40 12 -29 30 -33 40 -27 68 6 30 5 32 -11 19 -9 -8 -14 -16 -12 -19 7 -7 -33
-82 -43 -82 -5 0 -16 -3 -24 -6 -24 -9 -25 27 -3 70 11 22 20 56 21 75 1 20 7
47 15 61 8 15 12 49 11 87 -2 40 2 63 8 63 10 0 16 -35 12 -67 -1 -7 3 -13 9
-13 5 0 10 -4 10 -10 0 -5 -7 -10 -15 -10 -18 0 -20 -17 -3 -22 14 -5 -2 -70
-41 -168 -14 -36 -16 -48 -6 -36 8 11 15 24 15 29 0 4 4 5 10 2 6 -4 7 1 3 10
-3 10 0 21 8 26 8 4 14 12 15 16 0 4 8 25 17 45 10 21 17 45 17 55 0 23 -28
158 -40 198 -12 37 -70 95 -70 71z m271 -421 c24 -18 46 -30 49 -25 3 5 16 0
30 -10 14 -10 23 -21 20 -23 -9 -9 -130 45 -130 59 0 7 -8 18 -17 23 -10 6
-13 11 -7 11 6 0 31 -16 55 -35z m-177 -57 c-3 -18 -7 -42 -9 -53 -5 -24 -141
-164 -170 -175 -12 -4 -32 -30 -46 -56 -13 -27 -30 -55 -38 -63 -17 -18 -131
-29 -131 -12 0 6 6 11 14 11 7 0 22 16 31 37 16 34 16 38 1 64 -19 33 -20 40
-3 33 15 -5 83 21 92 36 3 5 11 10 16 10 5 0 3 -10 -4 -22 -8 -13 -20 -43 -27
-67 -11 -33 -21 -46 -42 -53 -15 -6 -28 -17 -28 -25 0 -11 3 -13 13 -5 6 5 23
12 37 14 19 2 28 12 37 43 19 67 48 138 70 173 l21 34 -1 -30 c-1 -17 -6 -30
-11 -29 -6 1 -11 -2 -11 -8 -1 -5 -13 -34 -29 -63 -15 -30 -25 -56 -22 -59 3
-3 10 5 15 18 5 13 21 37 35 52 14 15 26 33 26 38 0 6 4 8 9 5 15 -9 121 93
127 123 11 51 15 61 24 61 5 0 7 -15 4 -32z m158 7 c6 -14 17 -25 24 -25 7 0
21 -3 31 -6 17 -5 16 -4 -1 10 -11 9 -17 19 -13 22 3 3 17 -5 31 -19 15 -15
27 -21 29 -14 5 15 57 -31 57 -51 0 -11 -3 -12 -14 -3 -8 7 -27 14 -43 17 -80
12 -93 16 -93 23 0 5 -8 11 -19 14 -12 3 -18 13 -18 31 0 33 14 34 29 1z m-50
-15 c21 -19 21 -19 1 -27 -15 -6 -18 -13 -12 -28 4 -11 8 -14 8 -7 2 22 19 13
25 -14 7 -27 18 -26 22 1 1 9 -2 12 -9 8 -7 -4 -6 1 2 10 12 16 16 15 44 -9
16 -14 33 -21 36 -16 7 11 60 7 73 -6 10 -10 12 -220 2 -246 -6 -15 -9 -15
-29 4 -12 11 -24 18 -27 15 -3 -3 -11 1 -18 10 -7 8 -19 15 -27 15 -8 0 -12 4
-9 9 3 4 -19 7 -50 6 -46 -2 -54 0 -49 12 4 13 3 14 -10 3 -8 -7 -25 -10 -40
-6 -28 7 -33 24 -10 32 8 4 15 15 15 25 0 10 4 19 9 19 8 0 15 61 22 183 2 32
4 33 31 7z m78 10 c0 -5 -2 -10 -4 -10 -3 0 -8 5 -11 10 -3 6 -1 10 4 10 6 0
11 -4 11 -10z m130 -4 c0 -3 -4 -8 -10 -11 -5 -3 -10 -1 -10 4 0 6 5 11 10 11
6 0 10 -2 10 -4z m-272 -28 c7 -7 12 -29 12 -50 0 -35 -2 -38 -23 -33 -19 5
-27 0 -42 -29 -11 -20 -23 -36 -27 -36 -5 0 -8 -9 -8 -19 0 -10 -6 -21 -14
-24 -8 -3 -22 -24 -32 -46 -10 -23 -22 -41 -26 -41 -5 0 -17 14 -27 31 -12 20
-21 27 -26 19 -4 -7 4 -23 18 -38 18 -19 23 -32 17 -41 -7 -12 -11 -13 -25 -1
-9 7 -14 19 -11 27 4 9 -3 13 -20 13 -19 0 -25 -4 -22 -17 2 -10 10 -17 16
-16 7 2 12 -2 12 -8 0 -6 -8 -9 -17 -7 -25 5 -29 46 -6 66 50 46 51 46 78 15
l25 -28 -16 30 -15 30 64 68 c35 37 70 67 76 67 7 0 9 5 5 12 -4 6 1 17 10 23
15 12 15 14 1 29 -13 12 -13 16 -3 16 8 0 19 -5 26 -12z m307 -228 c0 -151 -5
-188 -19 -137 -8 29 -8 226 0 266 13 65 19 26 19 -129z m-395 6 c0 -3 -4 -8
-10 -11 -5 -3 -10 -1 -10 4 0 6 5 11 10 11 6 0 10 -2 10 -4z m-186 -121 c-4
-8 -3 -15 1 -15 3 0 13 7 21 15 9 8 22 15 30 15 20 0 11 -43 -14 -70 l-19 -21
-17 26 c-10 15 -20 24 -23 22 -2 -3 3 -16 11 -29 9 -14 13 -28 9 -31 -3 -4 -1
-7 6 -7 13 0 32 14 59 43 9 9 23 17 30 17 12 0 11 -5 -2 -24 -10 -16 -12 -27
-6 -31 6 -4 8 -10 5 -14 -2 -5 -7 -57 -9 -116 -3 -74 -9 -111 -18 -116 -7 -5
-15 -4 -16 1 -2 6 -9 7 -14 4 -6 -4 -17 1 -25 11 -7 11 -13 15 -13 9 0 -5 -45
-9 -100 -10 l-100 0 1 58 c1 32 5 61 10 63 9 6 -1 45 -12 45 -4 0 -11 -32 -15
-70 -7 -71 -13 -83 -46 -85 -13 -1 -18 6 -18 26 0 16 -7 29 -17 33 -12 5 -14
9 -5 18 7 7 12 25 12 41 0 21 4 28 14 24 10 -4 13 -1 10 7 -3 8 0 17 6 21 9 6
9 9 0 15 -22 13 1 59 44 88 43 29 106 36 114 13 2 -7 10 -5 19 5 10 10 19 12
26 5 12 -12 37 -3 37 15 0 8 7 14 15 14 9 0 12 -6 9 -15z m260 -16 c-4 -8 0
-9 15 -4 11 3 26 3 33 -1 7 -5 41 -9 76 -9 34 -1 68 -7 74 -13 7 -7 18 -12 25
-12 7 0 17 -9 23 -21 7 -12 18 -18 26 -15 24 9 45 -57 48 -153 4 -135 5 -132
-71 -130 -35 1 -66 6 -69 10 -2 5 -12 5 -21 2 -12 -5 -14 -3 -8 8 7 12 6 12
-7 1 -23 -19 -180 -2 -194 20 -5 7 -2 8 7 3 12 -7 12 -6 1 7 -10 13 -10 17 0
20 9 4 10 9 2 19 -14 19 -11 45 4 41 9 -2 10 3 4 15 -5 10 -8 36 -5 58 4 49 4
54 0 85 -4 35 12 80 30 80 8 0 11 -5 7 -11z m-506 -390 c-22 -15 -38 -10 -38
11 0 12 10 24 23 30 l22 9 -22 0 c-13 1 -23 7 -23 15 0 8 10 16 23 18 19 3 22
-2 25 -36 2 -24 -2 -42 -10 -47z m-48 56 c0 -8 -4 -15 -10 -15 -5 0 -10 7 -10
15 0 8 5 15 10 15 6 0 10 -7 10 -15z m58 -118 c2 -27 7 -35 18 -30 11 4 13 14
9 35 l-7 30 104 -7 c56 -4 111 -9 121 -11 9 -3 17 -1 17 4 0 6 8 9 18 7 9 -1
16 -10 16 -19 -1 -9 2 -16 7 -16 10 0 12 -73 3 -107 -7 -27 -17 -29 -37 -8
-13 12 -16 12 -20 1 -5 -13 -87 -15 -211 -7 -15 1 -17 8 -14 46 3 39 1 43 -9
28 -7 -9 -13 -32 -13 -50 0 -23 -5 -33 -16 -33 -8 0 -13 4 -10 9 3 4 -6 6 -19
3 -15 -2 -25 0 -25 7 0 7 5 9 10 6 6 -3 10 1 10 10 0 12 -5 15 -17 10 -15 -5
-16 -4 -5 6 14 15 16 33 2 24 -5 -3 -10 1 -10 10 0 11 5 15 15 11 9 -3 15 0
15 9 0 8 -8 16 -17 16 -16 1 -16 2 0 6 13 3 17 11 14 23 -3 12 1 21 12 23 29
8 36 1 39 -36z m355 -57 c1 -59 -2 -85 -10 -87 -10 -4 -13 19 -13 93 0 123 20
117 23 -6z m133 71 c-3 -5 2 -8 11 -6 10 1 22 0 28 -3 5 -3 23 -7 39 -9 17 -2
34 -9 38 -16 6 -9 8 -9 8 2 0 9 6 11 18 6 9 -4 22 -7 27 -7 6 0 21 1 35 1 40
3 104 -4 116 -11 10 -7 11 -84 0 -95 -2 -3 -30 -7 -61 -9 -41 -3 -54 -1 -49 7
5 8 3 9 -7 3 -8 -5 -53 -9 -101 -11 -77 -2 -88 0 -88 15 -1 16 -1 16 -10 0 -6
-10 -18 -14 -30 -11 -21 6 -28 33 -9 33 8 0 8 5 -1 15 -8 9 -10 29 -7 49 3 18
1 38 -4 43 -5 5 4 10 22 11 17 1 28 -2 25 -7z m371 -145 c-4 -9 -11 -16 -16
-16 -11 0 -12 108 -2 125 8 14 25 -90 18 -109z"/>
<path d="M2265 860 c-17 -18 -17 -20 -2 -14 9 3 17 10 17 16 0 5 5 6 12 2 7
-4 8 -3 4 4 -9 16 -10 15 -31 -8z"/>
<path d="M1606 515 c-9 -26 -7 -32 5 -12 6 10 9 21 6 23 -2 3 -7 -2 -11 -11z"/>
<path d="M1560 500 c0 -5 5 -10 11 -10 5 0 7 5 4 10 -3 6 -8 10 -11 10 -2 0
-4 -4 -4 -10z"/>
<path d="M1450 1476 c0 -17 -45 -40 -61 -30 -5 3 -9 -2 -9 -10 0 -9 -8 -16
-17 -16 -10 0 -25 -4 -33 -10 -12 -8 -12 -10 3 -16 9 -3 25 0 33 7 9 8 24 14
33 14 9 0 15 5 14 12 -2 7 3 10 10 7 14 -5 44 42 34 53 -4 3 -7 -1 -7 -11z"/>
<path d="M1583 1480 c2 -8 12 -16 23 -17 13 -2 15 -1 4 4 -8 3 -19 11 -23 17
-6 7 -7 6 -4 -4z"/>
<path d="M1692 1454 c18 -19 34 -30 36 -25 4 12 52 -11 52 -26 0 -6 4 -15 10
-18 6 -4 7 1 3 12 -6 16 -5 16 10 4 9 -7 14 -17 11 -22 -3 -5 0 -9 5 -9 20 0
11 15 -30 53 -31 30 -43 36 -54 27 -10 -8 -17 -6 -29 11 -8 13 -22 24 -31 25
-9 1 -2 -11 17 -32z"/>
<path d="M2050 1470 c-9 -6 -10 -10 -3 -10 6 0 15 5 18 10 8 12 4 12 -15 0z"/>
<path d="M1021 1463 c-1 -20 21 -63 30 -57 5 3 6 -2 3 -10 -3 -9 -1 -16 5 -16
16 0 13 31 -4 54 -8 11 -15 16 -16 10 0 -5 -4 0 -9 11 -5 11 -9 15 -9 8z"/>
<path d="M1886 1438 c1 -18 3 -36 3 -39 1 -4 10 -9 20 -12 19 -5 19 -4 1 25
-10 17 -16 37 -13 44 3 8 1 14 -4 14 -5 0 -8 -15 -7 -32z"/>
<path d="M913 1445 c-10 -11 -10 -16 -1 -21 7 -4 14 -2 16 4 2 7 8 9 14 6 6
-4 9 -1 6 6 -6 19 -21 21 -35 5z"/>
<path d="M1550 1456 c0 -2 8 -10 18 -17 15 -13 16 -12 3 4 -13 16 -21 21 -21
13z"/>
<path d="M1245 1430 c-10 -11 -13 -20 -7 -20 7 0 12 6 12 13 0 9 2 9 8 0 6 -9
11 -7 20 7 17 28 -8 27 -33 0z"/>
<path d="M1471 1434 c-11 -13 -11 -18 0 -30 12 -11 14 -9 16 16 3 34 3 34 -16
14z"/>
<path d="M1530 1441 c0 -6 4 -13 10 -16 6 -3 7 1 4 9 -7 18 -14 21 -14 7z"/>
<path d="M958 1433 c0 -5 -2 -12 -3 -18 -1 -5 -11 -41 -22 -80 -12 -38 -24
-93 -28 -121 -6 -47 -9 -51 -43 -64 -20 -7 -55 -25 -77 -39 -22 -15 -58 -33
-80 -40 -37 -13 -85 -39 -153 -83 -15 -10 -34 -21 -42 -24 -8 -4 -55 -26 -103
-51 -134 -68 -301 -128 -218 -79 23 14 47 26 51 26 7 0 103 44 272 124 32 15
60 32 64 37 5 9 -65 -22 -119 -51 -9 -6 -45 -21 -80 -34 -81 -31 -216 -96
-223 -107 -3 -5 -15 -9 -27 -9 -12 0 -45 -11 -72 -24 -38 -17 -51 -29 -51 -45
0 -25 4 -26 28 -4 25 22 23 13 -7 -27 -19 -26 -25 -45 -24 -84 1 -48 2 -49 8
-16 10 48 48 130 60 130 5 0 1 -20 -9 -44 -11 -24 -21 -52 -23 -62 -1 -10 -6
-25 -10 -31 -5 -8 -3 -13 7 -13 9 0 17 14 21 39 3 22 13 47 20 58 8 10 15 28
15 40 0 23 44 82 54 72 3 -3 -4 -29 -15 -58 -46 -123 -81 -382 -77 -582 l3
-159 191 0 191 0 7 61 c9 88 8 99 -9 99 -11 0 -13 -8 -9 -30 8 -38 -4 -120
-17 -120 -7 0 -8 25 -4 73 l7 73 -69 -4 c-37 -2 -86 -11 -108 -19 -45 -18 -74
-20 -125 -9 -42 9 -44 11 -36 32 5 13 13 15 44 8 52 -11 95 -8 128 9 29 15 86
26 137 27 27 0 27 0 27 72 0 73 24 163 41 152 5 -3 6 3 2 12 -4 12 -3 15 5 10
8 -5 12 2 12 23 0 17 5 42 12 56 13 30 5 43 -17 25 -10 -8 -28 -10 -57 -5 -24
4 -88 7 -143 6 -119 -2 -165 5 -165 24 0 11 22 14 97 15 54 1 115 2 136 3 21
0 41 -3 45 -9 4 -5 16 -8 27 -8 11 1 34 2 51 3 19 1 34 7 38 17 3 8 2 13 -3
10 -4 -3 -2 20 5 52 7 31 16 95 19 142 4 47 8 95 11 108 3 16 0 22 -13 22 -9
0 6 11 33 25 27 14 50 25 52 25 8 0 -2 -68 -27 -173 -49 -210 -60 -269 -71
-375 -12 -115 -11 -252 1 -252 5 0 9 6 9 14 0 11 28 15 128 20 70 4 154 9 187
11 33 2 66 4 73 5 9 0 12 50 12 213 l0 214 -52 -10 c-29 -5 -82 -15 -118 -23
-72 -16 -200 -19 -200 -5 0 21 31 32 76 27 31 -3 73 2 119 14 38 10 94 22 123
26 35 4 52 11 52 21 0 9 -6 12 -17 9 -50 -15 -215 -56 -228 -56 -8 0 -15 5
-15 10 0 6 13 10 29 10 16 0 44 7 64 15 19 8 50 17 68 20 19 3 51 10 71 14 41
10 48 6 48 -21 0 -10 6 -18 13 -17 11 2 47 -11 88 -31 17 -9 68 12 81 32 3 7
1 23 -7 37 -16 32 -27 83 -27 125 0 26 -4 32 -20 32 -28 -1 -48 31 -28 44 34
22 46 11 58 -52 7 -35 19 -86 27 -114 8 -28 15 -58 15 -67 0 -10 6 -17 14 -17
7 0 20 -8 27 -17 13 -15 11 -16 -17 -10 -29 6 -32 3 -44 -33 -8 -25 -17 -37
-26 -33 -8 3 -14 11 -14 18 0 17 -19 32 -51 40 l-27 7 -5 -289 c-4 -158 -9
-305 -13 -325 l-6 -38 231 0 231 0 -2 188 c-1 103 -4 152 -5 109 -4 -76 -4
-78 -29 -74 -13 2 -24 6 -24 10 0 4 0 15 0 25 1 16 2 16 15 -2 13 -18 14 -17
20 5 8 38 1 142 -11 146 -6 2 -10 -19 -10 -58 1 -33 -2 -63 -6 -66 -5 -2 -8 0
-8 4 0 5 -9 9 -20 10 -21 2 -28 -13 -8 -19 20 -7 18 -40 -3 -45 -17 -5 -29
-45 -11 -42 44 7 61 -34 20 -51 -22 -8 -22 -9 5 -9 30 -1 33 -8 12 -35 -11
-14 -12 -23 -4 -32 15 -19 7 -37 -19 -39 -11 -1 -19 2 -16 6 2 4 0 10 -5 13
-5 3 -12 -4 -16 -17 -4 -13 -8 -17 -11 -10 -5 11 0 65 26 303 5 49 5 78 -2 85
-7 7 -8 3 -4 -12 4 -12 3 -24 -3 -27 -5 -3 -7 -16 -3 -28 3 -14 2 -19 -6 -14
-7 4 -12 4 -12 -1 0 -4 -27 -9 -60 -11 -33 -1 -71 -6 -83 -11 -20 -8 -26 -5
-41 20 -9 16 -25 33 -36 39 -10 5 -21 23 -25 40 -4 16 -10 32 -15 35 -5 3 -5
-7 0 -22 15 -50 21 -61 39 -66 10 -2 20 -13 23 -24 4 -16 0 -19 -31 -18 -25 0
-36 5 -37 15 -1 8 -3 17 -4 20 -1 3 -4 29 -5 57 -2 46 0 53 16 53 11 0 19 7
19 16 0 8 -4 12 -10 9 -6 -3 -11 5 -11 19 -2 26 -5 44 -9 49 -8 8 -7 77 1 77
17 0 51 -38 45 -49 -9 -15 24 -2 47 17 9 8 17 23 17 34 0 10 7 18 15 18 21 0
125 -76 158 -115 16 -20 33 -33 38 -30 5 4 6 -2 3 -12 -4 -13 0 -11 14 7 20
24 20 25 1 61 -10 21 -23 40 -29 44 -5 3 -10 14 -10 23 1 12 14 2 41 -28 l41
-45 -27 45 c-14 25 -31 57 -37 73 -5 15 -14 27 -19 27 -12 0 -11 -7 1 -30 8
-15 6 -21 -9 -30 -26 -13 -28 -13 -35 7 -4 9 -1 20 6 24 15 10 -5 59 -24 59
-8 0 -31 12 -53 26 l-40 25 27 -24 c15 -14 23 -28 18 -33 -5 -5 8 -27 30 -52
22 -24 40 -44 40 -46 0 -10 -65 -2 -76 9 -18 18 -18 25 3 25 20 0 7 16 -28 34
-21 10 -32 35 -43 94 -3 12 0 22 5 22 6 0 7 5 4 10 -4 6 -11 8 -16 5 -5 -3 -6
1 -3 9 6 17 34 10 34 -9 0 -15 38 -50 46 -42 6 5 -67 107 -102 141 -8 9 -11
16 -5 16 26 0 1 81 -33 109 -18 15 -21 31 -5 31 5 0 7 -5 4 -10 -4 -6 -1 -9 5
-8 7 2 21 -13 32 -32 11 -19 33 -46 49 -59 16 -13 29 -30 29 -37 0 -8 7 -14
15 -14 8 0 15 5 15 11 0 5 -4 7 -10 4 -5 -3 -10 -1 -10 5 0 7 -15 26 -32 44
-67 65 -162 236 -173 310 -4 27 -8 71 -8 97 0 27 -4 49 -8 49 -5 0 -10 -3 -11
-7z m2 -93 c0 -5 -5 -10 -11 -10 -5 0 -7 5 -4 10 3 6 8 10 11 10 2 0 4 -4 4
-10z m-8 -69 c8 21 16 8 20 -31 1 -19 8 -38 13 -42 6 -5 4 -12 -5 -18 -15 -9
-14 -11 13 -14 13 -2 13 -9 1 -40 -6 -16 -4 -18 10 -13 12 5 16 3 12 -5 -3 -7
-9 -21 -12 -30 -9 -24 -32 -30 -38 -10 -7 21 -36 191 -36 206 0 6 4 5 9 -3 7
-11 9 -11 13 0z m-42 -139 c0 -10 14 -37 31 -60 36 -49 31 -71 -6 -27 l-25 30
11 -31 c5 -17 23 -44 39 -59 19 -18 30 -39 30 -56 0 -17 10 -36 28 -51 43 -38
52 -59 35 -85 -13 -20 -17 -21 -29 -8 -12 11 -13 19 -4 36 10 18 8 26 -18 53
-57 59 -102 138 -102 179 0 23 -4 36 -10 32 -5 -3 -10 -15 -10 -26 0 -23 -16
-25 -24 -2 -4 9 2 25 14 38 30 32 24 42 -7 14 -27 -23 -27 -23 1 9 34 36 46
40 46 14z m124 -58 c3 -8 2 -12 -4 -9 -6 3 -10 10 -10 16 0 14 7 11 14 -7z
m-254 -49 c-7 -8 -27 -15 -46 -15 -18 0 -36 -5 -39 -11 -4 -6 -13 -8 -20 -5
-7 2 -24 -2 -39 -9 -41 -22 -32 6 12 35 43 29 66 38 38 16 -11 -9 -17 -18 -14
-21 3 -3 16 4 30 15 14 10 28 17 31 14 3 -3 16 1 29 10 21 15 23 15 26 1 2 -9
-2 -22 -8 -30z m67 -34 c1 -37 11 -101 23 -141 12 -39 19 -78 16 -86 -7 -17
-56 -19 -56 -1 0 7 -4 5 -10 -4 -8 -14 -54 -34 -62 -27 -2 1 -14 -4 -26 -11
-32 -17 -70 -23 -76 -12 -4 5 -20 7 -37 4 -28 -4 -30 -3 -24 19 6 22 5 22 -9
-2 l-15 -25 -1 27 c0 15 11 39 25 54 29 31 33 43 8 23 -15 -13 -16 -11 -9 11
4 14 9 32 10 40 1 8 8 25 14 38 7 12 10 22 6 22 -3 0 -1 6 5 13 6 8 9 16 6 18
-2 3 11 12 30 21 38 17 38 17 35 -43 -1 -19 5 -41 12 -47 11 -9 14 -1 16 41 1
36 7 56 19 65 16 11 19 9 25 -15 4 -15 5 -38 1 -51 -11 -44 21 -19 39 31 17
46 17 47 -2 47 -27 0 -25 8 8 36 15 13 27 24 27 24 0 0 1 -31 2 -69z m206 35
c20 -9 37 -19 37 -21 0 -2 3 -11 7 -21 4 -12 2 -15 -8 -12 -8 3 -32 -1 -53 -9
-22 -7 -37 -10 -33 -7 4 4 -2 13 -13 21 -11 8 -20 19 -20 25 0 14 30 49 39 44
3 -1 23 -10 44 -20z m-161 -55 c-3 -9 -2 -13 3 -9 8 8 45 -33 45 -51 0 -5 6
-14 14 -18 8 -4 16 -17 18 -28 2 -11 10 -19 16 -18 17 4 15 -22 -3 -37 -10 -9
-15 -9 -16 -1 -1 6 -2 17 -3 24 -1 6 -9 11 -19 9 -15 -3 -22 8 -18 30 0 4 -5
5 -13 2 -8 -3 -16 4 -19 16 -3 12 -9 20 -14 17 -4 -3 -9 25 -11 62 -2 61 -1
64 12 42 8 -14 11 -32 8 -40z m-406 -56 c10 -10 13 -29 10 -62 -2 -26 -5 -50
-6 -53 -6 -13 -7 -30 -8 -88 -1 -39 -6 -61 -12 -57 -5 3 -10 -1 -10 -10 0 -12
-7 -14 -27 -9 -16 3 -37 8 -48 10 -16 4 -15 2 5 -10 14 -9 38 -15 54 -16 24 0
27 -3 18 -12 -10 -10 -19 -10 -43 -1 -20 8 -72 11 -144 8 -115 -4 -191 5 -149
18 11 4 41 3 67 -2 47 -8 97 -4 97 8 0 4 -21 8 -47 9 -65 2 -83 6 -95 23 -8
11 -8 9 -3 -6 4 -13 3 -16 -3 -10 -22 23 0 84 45 129 40 41 83 57 83 32 0 -5
10 0 23 12 13 12 26 20 29 17 3 -3 11 1 18 10 7 8 19 15 28 15 8 0 24 7 34 17
15 13 54 38 66 42 2 1 10 -6 18 -14z m461 -110 c12 -17 25 -48 29 -69 l7 -39
-21 21 c-26 26 -42 56 -42 77 0 9 -9 28 -20 42 -11 14 -20 32 -20 40 0 15 27
-15 67 -72z m-859 -27 c-2 -6 -10 -14 -16 -16 -7 -2 -10 2 -6 12 7 18 28 22
22 4z m938 -42 l1 -39 -19 22 c-23 30 -24 64 -1 59 12 -2 18 -14 19 -42z m44
29 c-7 -9 -15 -13 -17 -11 -7 7 7 26 19 26 6 0 6 -6 -2 -15z m16 -61 c-3 -8
-12 -14 -21 -14 -20 0 -31 28 -16 43 8 8 11 7 11 -6 0 -26 20 -20 21 6 1 17 2
18 6 4 3 -10 2 -25 -1 -33z m154 16 c0 -5 -4 -10 -10 -10 -5 0 -10 5 -10 10 0
6 5 10 10 10 6 0 10 -4 10 -10z m-621 -27 c23 -6 23 -7 5 -14 -10 -4 -30 -8
-43 -8 -20 -1 -21 1 -11 14 14 17 16 17 49 8z m651 -3 c0 -5 -4 -10 -9 -10 -6
0 -13 5 -16 10 -3 6 1 10 9 10 9 0 16 -4 16 -10z m-383 -156 c-1 -53 1 -101 5
-107 4 -6 4 -16 0 -21 -3 -6 -5 -26 -4 -46 4 -56 -7 -63 -90 -64 -40 -1 -76
-5 -80 -11 -5 -6 -8 -5 -8 2 0 7 -6 10 -12 8 -28 -11 -138 -11 -138 -1 0 8 -2
8 -8 0 -4 -6 -14 -13 -22 -16 -13 -5 -15 1 -13 26 1 17 4 65 7 106 6 82 11
114 22 132 4 7 3 8 -4 4 -8 -5 -8 1 -1 22 8 24 15 28 49 29 22 0 40 -3 40 -8
0 -5 11 -4 25 1 14 5 25 8 25 5 0 -2 16 3 36 11 20 8 33 11 30 5 -4 -5 -1 -13
5 -17 7 -4 9 -3 5 4 -3 6 -2 13 3 16 17 11 81 15 81 6 0 -6 5 -10 11 -10 5 0
8 4 5 9 -6 10 14 21 26 15 3 -2 5 -47 5 -100z m439 39 c22 -25 29 -40 21 -45
-6 -4 -18 4 -28 18 -9 14 -20 25 -24 24 -11 -2 -25 22 -19 32 9 14 17 9 50
-29z m-1167 -35 c7 2 17 -2 22 -9 5 -8 9 -9 9 -4 0 6 10 11 23 12 12 1 44 3
70 6 26 2 50 1 52 -4 3 -4 16 -6 30 -5 14 2 26 -3 30 -13 5 -13 8 -13 15 -2 4
8 15 11 24 8 14 -6 13 -14 -10 -74 -14 -37 -29 -91 -33 -120 -8 -62 -10 -64
-53 -68 -18 -2 -35 -5 -38 -6 -3 -1 -8 -1 -11 -1 -4 1 -15 -8 -24 -18 -19 -21
-61 -28 -49 -9 4 8 0 7 -15 -1 -16 -8 -31 -8 -56 0 -19 6 -41 10 -51 8 -11 -2
-18 5 -20 22 -3 23 -3 24 10 7 9 -12 16 -14 21 -8 3 6 2 11 -2 11 -5 0 -14 9
-21 21 -8 12 -9 18 -3 15 5 -4 12 -2 16 4 3 5 1 10 -5 10 -7 0 -10 12 -7 33 6
37 25 89 26 68 1 -8 4 -12 7 -8 3 3 3 15 -1 28 -6 17 -9 19 -17 8 -7 -10 -8
-9 -3 6 4 11 9 34 10 50 3 45 4 46 23 37 9 -5 23 -7 31 -4z m1136 -238 c7 -11
8 -11 -65 -15 -30 -2 -66 -6 -79 -9 -37 -8 -130 -10 -138 -3 -13 13 7 19 64
19 32 0 76 3 98 8 58 11 113 12 120 0z m-405 -31 c0 -5 -3 -10 -7 -10 -74 -13
-373 -22 -373 -11 0 13 44 19 155 21 49 1 91 3 92 4 8 7 133 4 133 -4z m398
-24 c3 -19 -2 -21 -60 -20 -35 0 -100 -4 -146 -8 -77 -7 -83 -6 -80 10 3 15
18 19 82 25 43 4 84 9 90 12 6 3 34 4 61 3 42 -2 50 -5 53 -22z m-898 -5 c0
-13 -11 -17 -75 -24 -49 -5 -50 -5 -29 12 24 20 104 29 104 12z m-182 -34 c17
-1 32 -4 32 -8 0 -13 -41 -20 -55 -8 -9 7 -15 7 -19 1 -4 -6 -13 -8 -20 -5 -7
3 -26 6 -41 7 -16 1 -31 9 -33 16 -4 12 5 13 49 6 30 -4 69 -8 87 -9z m1208
-29 c-2 -18 -4 -60 -5 -94 0 -35 -5 -63 -11 -63 -11 0 -14 140 -4 177 9 33 24
17 20 -20z m-139 20 c9 -9 4 -140 -6 -150 -13 -13 -255 -17 -271 -5 -12 8 -11
9 4 4 15 -5 16 -4 8 7 -10 12 -9 108 2 125 3 5 19 8 36 7 16 -1 30 3 30 8 0 5
13 7 29 4 15 -3 41 -2 57 2 32 9 101 8 111 -2z m-891 -91 c-12 -76 -7 -71 -79
-73 -58 -2 -66 0 -61 15 5 15 4 15 -9 -1 -10 -12 -16 -14 -19 -6 -3 9 -9 9
-25 0 -31 -16 -73 -14 -73 4 0 8 4 15 9 15 5 0 11 9 14 20 3 11 13 20 22 20 9
0 33 7 52 17 30 14 36 14 44 2 7 -12 9 -12 9 1 0 10 3 11 11 3 12 -12 42 -6
34 7 -2 4 14 7 36 7 40 0 40 0 35 -31z m-257 -27 c-12 -24 -29 -16 -22 10 3
12 11 17 19 14 10 -4 11 -10 3 -24z m-29 11 c0 -5 -4 -10 -10 -10 -5 0 -10 5
-10 10 0 6 5 10 10 10 6 0 10 -4 10 -10z"/>
<path d="M635 870 c3 -5 8 -10 11 -10 2 0 4 5 4 10 0 6 -5 10 -11 10 -5 0 -7
-4 -4 -10z"/>
<path d="M997 1003 c-13 -12 -8 -26 6 -16 6 5 27 9 46 7 22 -1 29 1 20 7 -17
10 -63 12 -72 2z"/>
<path d="M1018 973 c7 -3 16 -2 19 1 4 3 -2 6 -13 5 -11 0 -14 -3 -6 -6z"/>
<path d="M423 877 c4 -10 7 -25 7 -33 0 -8 5 -14 11 -14 5 0 7 5 4 10 -3 6 4
10 17 11 15 0 18 3 8 6 -8 3 -24 13 -34 22 -18 15 -19 15 -13 -2z"/>
<path d="M255 786 c17 -8 32 -12 34 -10 7 7 -3 12 -34 18 l-30 6 30 -14z"/>
<path d="M205 761 c-10 -17 12 -21 25 -6 10 12 10 15 -3 15 -9 0 -18 -4 -22
-9z"/>
<path d="M175 720 c-3 -5 -1 -10 4 -10 6 0 11 5 11 10 0 6 -2 10 -4 10 -3 0
-8 -4 -11 -10z"/>
<path d="M305 650 c-3 -5 -1 -10 4 -10 6 0 11 5 11 10 0 6 -2 10 -4 10 -3 0
-8 -4 -11 -10z"/>
<path d="M340 650 c-9 -6 -10 -10 -3 -10 6 0 15 5 18 10 8 12 4 12 -15 0z"/>
<path d="M863 481 c0 -11 5 -18 9 -15 4 3 5 11 1 19 -7 21 -12 19 -10 -4z"/>
<path d="M220 274 c0 -8 5 -12 10 -9 6 4 8 11 5 16 -9 14 -15 11 -15 -7z"/>
<path d="M261 84 c0 -11 3 -14 6 -6 3 7 2 16 -1 19 -3 4 -6 -2 -5 -13z"/>
<path d="M1595 1430 c3 -5 11 -10 16 -10 6 0 7 5 4 10 -3 6 -11 10 -16 10 -6
0 -7 -4 -4 -10z"/>
<path d="M1910 1431 c0 -10 19 -25 25 -20 1 2 -3 10 -11 17 -8 7 -14 8 -14 3z"/>
<path d="M1696 1395 c26 -34 44 -45 44 -25 0 6 -4 10 -8 10 -5 0 -14 11 -20
25 -6 14 -19 25 -27 25 -13 0 -10 -8 11 -35z"/>
<path d="M1190 1400 l-25 -19 28 3 c15 1 28 6 28 10 2 21 -9 23 -31 6z"/>
<path d="M1642 1382 c-23 -26 -24 -26 -19 -4 4 18 3 21 -8 12 -11 -9 -11 -16
1 -38 8 -15 14 -33 14 -39 0 -7 4 -13 9 -13 4 0 20 -12 35 -26 20 -20 26 -37
26 -68 0 -30 -3 -37 -10 -26 -5 8 -7 23 -4 34 4 11 2 16 -4 12 -5 -3 -13 5
-16 19 -3 13 -15 29 -26 35 -25 14 -26 6 0 -20 20 -20 37 -67 27 -76 -10 -10
-47 7 -47 21 0 9 6 12 15 9 8 -4 15 -1 15 6 0 6 -4 9 -9 5 -5 -3 -13 5 -17 17
-6 21 -7 21 -20 3 -21 -28 -17 -44 12 -57 24 -11 24 -13 8 -25 -10 -7 -15 -16
-11 -19 3 -4 13 1 22 10 23 22 45 20 40 -4 -2 -11 1 -22 6 -26 5 -3 9 -2 8 3
-4 22 2 32 17 26 13 -5 15 -2 9 17 -4 14 -3 20 3 16 5 -3 15 1 21 8 8 10 9 16
1 21 -5 3 -10 1 -10 -4 0 -28 -18 -7 -23 27 -4 20 -15 45 -26 54 -12 11 -18
24 -14 37 3 12 1 21 -6 21 -6 0 -11 7 -11 16 0 14 3 14 15 4 8 -7 15 -18 15
-25 0 -7 7 -15 15 -19 13 -5 14 -2 3 17 -7 12 -11 29 -10 37 1 10 -1 11 -4 2
-8 -17 -24 -5 -17 13 8 22 1 18 -25 -13z m13 -43 c11 -17 -1 -21 -15 -4 -8 9
-8 15 -2 15 6 0 14 -5 17 -11z m-35 -113 c0 -3 -4 -8 -10 -11 -5 -3 -10 -1
-10 4 0 6 5 11 10 11 6 0 10 -2 10 -4z"/>
<path d="M1283 1387 c-10 -13 -10 -54 1 -64 3 -3 6 8 6 26 0 19 4 30 10 26 6
-3 10 -2 10 4 0 16 -17 22 -27 8z"/>
<path d="M1437 1393 c-4 -3 -7 -11 -7 -17 0 -6 5 -5 12 2 6 6 9 14 7 17 -3 3
-9 2 -12 -2z"/>
<path d="M1846 1384 c-3 -9 -6 -24 -6 -35 0 -10 -4 -19 -10 -19 -5 0 -10 -7
-10 -15 0 -8 -6 -14 -12 -12 -16 3 -17 -25 -2 -30 11 -4 26 24 50 90 12 35 3
55 -10 21z"/>
<path d="M1224 1363 c-10 -15 -19 -37 -20 -48 -1 -11 -5 -30 -9 -42 -5 -15 -3
-23 4 -23 6 0 11 12 11 26 0 14 4 23 10 19 6 -4 10 8 10 29 0 20 5 36 10 36 6
0 8 -12 5 -27 -3 -16 -2 -21 1 -13 4 8 10 22 15 31 6 11 4 21 -5 28 -10 9 -17
5 -32 -16z"/>
<path d="M1582 1370 c0 -14 2 -19 5 -12 2 6 2 18 0 25 -3 6 -5 1 -5 -13z"/>
<path d="M1753 1360 c3 -11 1 -20 -4 -20 -4 0 -6 -7 -3 -15 9 -22 19 -11 22
24 1 18 -3 31 -9 31 -6 0 -9 -9 -6 -20z"/>
<path d="M1033 1359 c-6 -6 -9 -18 -5 -27 4 -11 1 -14 -11 -9 -19 7 -21 -1 -7
-23 6 -9 5 -17 -1 -21 -6 -3 0 -8 13 -11 20 -4 24 0 26 21 1 20 0 22 -8 11 -5
-8 -12 -11 -15 -8 -11 10 4 28 23 28 15 0 15 2 2 11 -11 8 -12 12 -2 16 13 5
17 23 4 23 -4 0 -13 -5 -19 -11z"/>
<path d="M1147 1354 c6 -17 14 -18 38 -1 16 13 15 14 -13 15 -23 0 -29 -3 -25
-14z"/>
<path d="M1460 1356 c0 -9 5 -16 11 -16 5 0 8 -4 5 -8 -2 -4 -1 -14 4 -22 7
-11 9 -8 7 10 -2 29 -27 62 -27 36z"/>
<path d="M1381 1344 c5 -6 6 -14 2 -17 -3 -4 1 -7 11 -7 10 0 14 5 10 11 -3 6
-1 15 6 19 8 5 4 8 -13 7 -17 -1 -22 -6 -16 -13z"/>
<path d="M1860 1351 c0 -5 6 -12 13 -14 9 -4 9 -6 0 -6 -7 -1 -10 -7 -7 -15 3
-9 -3 -20 -15 -28 -24 -15 -28 -30 -6 -21 9 3 23 19 31 36 12 23 18 27 25 16
5 -8 9 -9 9 -4 0 6 -4 15 -8 21 -10 14 -42 26 -42 15z"/>
<path d="M1124 1331 c0 -9 -5 -15 -12 -13 -10 2 -10 -2 -1 -19 6 -12 7 -19 1
-15 -5 3 -13 -1 -16 -10 -9 -22 -8 -26 5 -18 8 4 9 -1 4 -16 -5 -15 -4 -20 4
-16 10 7 36 -39 33 -56 -1 -5 3 -8 9 -8 6 0 9 6 6 14 -6 16 2 28 14 20 5 -2 4
-17 -1 -32 -10 -26 -9 -26 6 -7 15 19 16 18 10 -15 -4 -21 -3 -28 2 -17 7 17
9 17 21 3 7 -9 20 -16 28 -16 8 0 11 -4 8 -10 -3 -5 4 -10 15 -10 15 0 20 -5
17 -14 -7 -17 29 -60 58 -70 13 -4 8 3 -12 19 -35 28 -42 52 -18 61 8 4 15 12
15 20 0 17 -27 19 -33 2 -3 -7 -4 3 -3 22 1 19 5 41 10 49 5 8 9 32 10 55 1
30 -3 41 -14 41 -16 0 -16 -3 -5 -48 9 -34 -19 -49 -40 -21 -13 17 -14 15 -4
-14 9 -25 14 -30 21 -20 5 8 6 2 2 -17 -9 -41 -12 -42 -24 -9 -6 16 -15 31
-19 34 -5 3 -3 26 4 52 6 26 8 45 3 42 -4 -3 -8 -12 -8 -20 0 -8 -4 -14 -10
-14 -5 0 -10 -8 -10 -18 0 -10 -7 -19 -15 -19 -17 0 -17 -2 -6 54 5 24 4 40 0
37 -5 -3 -9 -16 -9 -30 0 -13 -4 -24 -10 -24 -5 0 -7 -6 -4 -14 8 -21 -13 -29
-21 -8 -8 18 -7 91 2 105 3 5 11 0 19 -10 7 -10 14 -13 14 -6 0 7 7 10 18 6 9
-3 14 -2 9 2 -4 5 -22 14 -41 20 -29 10 -33 9 -32 -4z m105 -193 c0 -16 -2
-18 -6 -8 -3 8 -11 18 -17 22 -7 5 -4 8 7 8 11 0 17 -7 16 -22z"/>
<path d="M1300 1340 c0 -5 5 -10 10 -10 6 0 10 5 10 10 0 6 -4 10 -10 10 -5 0
-10 -4 -10 -10z"/>
<path d="M1516 1335 c4 -8 1 -15 -5 -15 -6 0 -11 -5 -11 -12 0 -9 3 -9 12 0 9
9 17 3 34 -26 13 -20 24 -46 25 -57 0 -15 3 -12 9 9 7 20 5 32 -5 43 -8 7 -22
27 -32 43 -18 31 -37 41 -27 15z"/>
<path d="M1714 1307 c-2 -33 0 -37 6 -17 8 28 15 18 24 -41 6 -32 10 -36 34
-36 15 0 21 2 14 4 -10 4 -9 10 5 26 10 11 12 17 6 13 -8 -4 -13 -2 -14 6 0 7
-7 0 -14 -17 l-14 -30 -1 31 c0 16 -7 39 -15 50 -8 10 -15 27 -15 37 0 37 -15
15 -16 -26z"/>
<path d="M1790 1340 c0 -5 5 -10 11 -10 5 0 7 5 4 10 -3 6 -8 10 -11 10 -2 0
-4 -4 -4 -10z"/>
<path d="M1313 1320 c-26 -21 -29 -30 -9 -30 8 0 17 -6 20 -12 3 -7 4 -2 3 11
-1 13 4 26 12 29 14 5 13 0 -11 -81 -9 -30 -9 -40 2 -50 10 -10 12 -9 7 5 -3
9 -1 19 6 22 9 3 8 5 -1 5 -9 1 -7 7 6 21 12 13 17 30 14 50 -6 42 -22 52 -49
30z"/>
<path d="M1431 1324 c0 -11 3 -14 6 -6 3 7 2 16 -1 19 -3 4 -6 -2 -5 -13z"/>
<path d="M1454 1298 c3 -24 0 -41 -10 -49 -8 -6 -14 -21 -13 -33 0 -20 1 -21
9 -1 6 14 9 4 9 -37 1 -32 6 -58 11 -58 6 0 10 -5 10 -11 0 -5 -4 -7 -10 -4
-6 3 -10 -4 -10 -16 0 -18 3 -20 12 -11 17 17 31 15 24 -3 -7 -20 0 -19 24 5
23 23 45 27 37 6 -4 -10 0 -14 13 -13 15 1 17 5 8 20 -5 10 -7 21 -4 25 3 3 6
0 6 -7 0 -9 5 -9 21 -1 23 13 41 4 20 -9 -9 -6 -5 -8 13 -8 l26 0 -27 25 c-16
14 -27 33 -25 41 2 14 2 14 -7 1 -9 -12 -11 -9 -12 15 -1 29 -1 29 -8 5 -5
-17 -2 -29 8 -37 14 -11 12 -12 -12 -13 -15 0 -30 -7 -33 -15 -4 -8 -14 -15
-23 -15 -12 0 -9 6 11 23 21 18 25 26 16 35 -9 9 -9 12 1 12 7 0 11 6 8 14 -3
7 0 19 6 25 8 8 8 11 -2 11 -7 0 -11 6 -9 13 3 6 -1 26 -8 42 -15 35 -16 27
-5 -33 5 -25 5 -45 -1 -48 -5 -4 -7 -16 -4 -28 6 -25 -24 -49 -49 -39 -13 5
-14 7 -3 14 7 5 9 9 3 9 -5 0 -11 24 -13 53 -2 37 0 48 8 37 14 -21 12 -2 -5
50 -15 44 -15 44 -11 8z"/>
<path d="M1570 1321 c0 -5 7 -14 15 -21 12 -10 15 -10 15 3 0 8 -7 17 -15 21
-8 3 -15 2 -15 -3z"/>
<path d="M1073 1308 c-4 -7 -8 -31 -8 -53 0 -30 5 -45 23 -59 13 -10 24 -17
26 -15 5 9 -32 68 -39 61 -5 -4 -5 1 -2 11 20 55 20 85 0 55z"/>
<path d="M1266 1301 c-4 -7 -5 -15 -2 -18 9 -9 19 4 14 18 -4 11 -6 11 -12 0z"/>
<path d="M1380 1293 c0 -10 4 -14 8 -8 4 6 11 13 16 18 5 4 2 7 -7 7 -10 0
-17 -8 -17 -17z"/>
<path d="M1770 1295 c0 -8 2 -15 4 -15 2 0 6 7 10 15 3 8 1 15 -4 15 -6 0 -10
-7 -10 -15z"/>
<path d="M1416 1284 c-9 -23 -7 -46 3 -40 12 8 21 45 11 51 -4 3 -11 -2 -14
-11z"/>
<path d="M1497 1249 c-10 -37 -8 -99 3 -99 5 0 8 20 5 48 -4 35 -2 41 4 22 7
-21 9 -21 9 -5 0 11 -3 29 -7 39 -7 18 -8 18 -14 -5z"/>
<path d="M1850 1250 c0 -5 5 -10 11 -10 5 0 7 5 4 10 -3 6 -8 10 -11 10 -2 0
-4 -4 -4 -10z"/>
<path d="M1382 1238 c-17 -17 -15 -63 5 -79 15 -13 16 -12 11 8 -4 13 -2 26 3
29 5 3 9 11 9 17 0 7 -4 6 -11 -3 -8 -12 -9 -9 -5 13 7 30 5 32 -12 15z"/>
<path d="M1250 1231 c0 -6 5 -13 10 -16 6 -3 10 1 10 9 0 9 -4 16 -10 16 -5 0
-10 -4 -10 -9z"/>
<path d="M1755 1190 c3 -5 11 -10 16 -10 6 0 7 5 4 10 -3 6 -11 10 -16 10 -6
0 -7 -4 -4 -10z"/>
<path d="M1300 1170 c0 -5 5 -10 11 -10 5 0 7 5 4 10 -3 6 -8 10 -11 10 -2 0
-4 -4 -4 -10z"/>
<path d="M1351 1162 c-1 -12 5 -25 13 -28 12 -5 12 -8 -2 -24 -8 -11 -19 -17
-24 -14 -4 3 -8 0 -8 -5 0 -15 37 -14 43 2 4 10 6 10 6 0 1 -7 8 -13 16 -13 9
0 12 6 9 15 -4 8 -2 15 4 15 6 0 12 -6 15 -12 2 -7 8 -10 12 -6 4 4 0 15 -9
24 -9 9 -19 14 -23 11 -6 -7 -38 23 -46 43 -3 10 -6 7 -6 -8z"/>
<path d="M1423 1164 c-3 -8 -1 -20 6 -27 8 -8 11 -4 11 16 0 30 -7 35 -17 11z"/>
<path d="M1785 1160 c3 -5 8 -10 11 -10 2 0 4 5 4 10 0 6 -5 10 -11 10 -5 0
-7 -4 -4 -10z"/>
<path d="M1320 1135 c0 -8 7 -15 16 -15 14 0 14 3 4 15 -7 8 -14 15 -16 15 -2
0 -4 -7 -4 -15z"/>
<path d="M1645 1140 c3 -5 8 -10 11 -10 2 0 4 5 4 10 0 6 -5 10 -11 10 -5 0
-7 -4 -4 -10z"/>
<path d="M1915 1119 c-4 -6 -5 -12 -2 -15 2 -3 7 2 10 11 7 17 1 20 -8 4z"/>
<path d="M2161 1126 c2 -2 39 -18 82 -35 42 -17 112 -48 155 -70 42 -21 102
-46 132 -56 30 -10 122 -51 204 -92 102 -50 153 -70 160 -63 13 13 27 13 24
-1 -2 -6 3 -14 11 -17 10 -3 11 0 5 9 -4 8 7 1 25 -14 37 -30 49 -30 32 1 -15
28 -124 77 -321 146 -91 32 -201 75 -245 96 -121 58 -286 117 -264 96z m709
-296 c0 -5 -5 -10 -11 -10 -5 0 -7 5 -4 10 3 6 8 10 11 10 2 0 4 -4 4 -10z"/>
<path d="M2063 1086 c3 -36 17 -63 17 -32 0 11 4 15 13 10 8 -5 8 -2 -2 9 -10
12 -10 17 -2 17 8 0 7 5 -3 15 -21 22 -25 19 -23 -19z"/>
<path d="M1225 1060 c3 -5 8 -10 11 -10 2 0 4 5 4 10 0 6 -5 10 -11 10 -5 0
-7 -4 -4 -10z"/>
<path d="M1540 1040 c0 -5 5 -10 11 -10 5 0 7 5 4 10 -3 6 -8 10 -11 10 -2 0
-4 -4 -4 -10z"/>
<path d="M1610 1040 c-13 -8 -13 -10 2 -10 9 0 20 5 23 10 8 13 -5 13 -25 0z"/>
<path d="M1848 1023 c-23 -27 -30 -43 -20 -43 11 0 46 50 39 56 -2 2 -11 -4
-19 -13z"/>
<path d="M1780 1005 c-9 -10 -9 -15 -1 -15 6 0 11 4 11 9 0 5 8 12 18 14 14 4
14 5 1 6 -9 0 -22 -6 -29 -14z"/>
<path d="M1360 1000 c0 -4 11 -10 25 -12 13 -3 22 -2 20 2 -7 11 -45 20 -45
10z"/>
<path d="M1632 964 c-12 -8 -26 -13 -30 -10 -5 3 -9 -1 -9 -9 0 -21 12 -19 44
10 32 27 29 33 -5 9z"/>
<path d="M1780 970 c-8 -5 -10 -10 -5 -10 6 0 17 5 25 10 8 5 11 10 5 10 -5 0
-17 -5 -25 -10z"/>
<path d="M1121 955 c-1 -11 17 -44 39 -73 22 -29 40 -56 40 -60 0 -4 19 -20
42 -36 23 -17 36 -32 30 -34 -19 -6 33 -42 61 -42 31 0 51 -23 72 -87 17 -55
21 -59 45 -43 13 8 12 16 -4 65 -22 62 -27 68 -77 84 -60 19 -157 97 -194 156
-39 60 -43 74 -17 54 15 -13 16 -12 3 3 -7 10 -17 16 -21 13 -5 -3 -11 1 -13
7 -3 7 -6 4 -6 -7z m299 -286 c0 -6 -4 -7 -10 -4 -5 3 -10 11 -10 16 0 6 5 7
10 4 6 -3 10 -11 10 -16z"/>
<path d="M548 940 c-4 -8 -9 -49 -12 -90 -2 -41 -7 -86 -10 -100 -4 -14 3 0
14 30 14 38 20 73 18 115 -2 33 -6 53 -10 45z"/>
<path d="M1793 925 c0 -8 4 -12 9 -9 4 3 8 9 8 15 0 5 -4 9 -8 9 -5 0 -9 -7
-9 -15z"/>
<path d="M1630 920 c-9 -6 -10 -10 -3 -10 6 0 15 5 18 10 8 12 4 12 -15 0z"/>
<path d="M1345 910 c-3 -5 1 -10 9 -10 9 0 16 5 16 10 0 6 -4 10 -9 10 -6 0
-13 -4 -16 -10z"/>
<path d="M2447 742 c1 -96 4 -176 6 -178 1 -2 31 3 66 12 80 18 267 24 264 8
-1 -7 6 -10 17 -7 12 3 20 0 20 -8 0 -31 12 4 16 48 3 26 7 54 10 62 2 7 -1
31 -6 52 -8 28 -16 39 -30 39 -10 0 -22 5 -25 10 -8 13 -25 3 -24 -13 0 -9 2
-9 6 0 3 10 8 9 19 -2 9 -8 13 -19 9 -24 -3 -5 -1 -12 5 -16 5 -3 10 -1 10 5
0 6 4 9 8 6 5 -3 6 -24 3 -48 -5 -39 -8 -43 -33 -42 -37 2 -36 -12 2 -19 17
-4 30 -12 30 -18 0 -6 -7 -8 -16 -5 -9 3 -34 6 -57 7 -38 0 -40 1 -19 11 12 6
22 14 22 17 0 9 -198 6 -243 -4 l-38 -7 2 84 c1 47 -1 90 -5 96 -3 6 2 15 11
21 16 9 16 10 2 16 -20 8 -14 45 8 45 7 0 25 -7 38 -16 30 -19 32 -11 6 18
-11 11 -25 18 -33 16 -7 -3 -22 -2 -33 2 -21 8 -21 5 -18 -168z m238 -121 c12
-5 -10 -10 -65 -14 -47 -3 -100 -9 -117 -13 -21 -4 -33 -3 -33 4 0 21 172 40
215 23z"/>
<path d="M1217 876 c16 -18 29 -32 30 -31 9 5 -25 55 -40 59 -13 3 -11 -3 10
-28z"/>
<path d="M1533 899 c-18 -5 -33 -12 -33 -15 0 -9 53 5 65 17 10 10 11 10 -32
-2z"/>
<path d="M1595 900 c3 -5 8 -10 11 -10 2 0 4 5 4 10 0 6 -5 10 -11 10 -5 0 -7
-4 -4 -10z"/>
<path d="M1280 841 c0 -5 5 -13 10 -16 6 -4 7 -12 4 -18 -5 -9 -4 -9 6 0 10 9
10 15 -4 28 -9 9 -16 12 -16 6z"/>
<path d="M1575 830 c-3 -5 -1 -10 4 -10 6 0 11 5 11 10 0 6 -2 10 -4 10 -3 0
-8 -4 -11 -10z"/>
<path d="M2620 826 c0 -2 7 -6 15 -10 8 -3 15 -1 15 4 0 6 -7 10 -15 10 -8 0
-15 -2 -15 -4z"/>
<path d="M2668 823 c7 -3 16 -2 19 1 4 3 -2 6 -13 5 -11 0 -14 -3 -6 -6z"/>
<path d="M2484 775 c-3 -8 -4 -20 -2 -27 3 -7 7 -1 10 15 6 29 1 36 -8 12z"/>
<path d="M2911 753 c16 -31 18 -50 13 -115 -5 -56 -4 -78 5 -78 6 0 11 4 11 9
0 5 15 13 33 17 l32 8 -35 7 -35 6 33 2 c21 1 32 6 32 16 0 11 -8 13 -30 9
-16 -4 -30 -2 -30 3 0 16 31 53 41 48 5 -4 9 -1 9 4 0 6 -9 11 -19 11 -10 0
-22 7 -25 16 -9 23 0 29 19 14 13 -11 14 -10 9 3 -5 13 -66 57 -78 57 -2 0 5
-17 15 -37z"/>
<path d="M2985 740 c3 -5 8 -10 11 -10 2 0 4 5 4 10 0 6 -5 10 -11 10 -5 0 -7
-4 -4 -10z"/>
<path d="M1627 724 c-4 -4 -7 -17 -7 -28 1 -19 1 -20 11 -3 11 19 8 43 -4 31z"/>
<path d="M511 695 c-1 -11 -4 -31 -7 -45 -5 -22 -4 -23 6 -7 6 10 9 30 7 45
-3 18 -5 20 -6 7z"/>
<path d="M1467 674 c2 -6 15 -9 28 -6 14 2 22 8 19 13 -8 13 -52 7 -47 -7z"/>
<path d="M923 655 c9 -22 11 -390 3 -404 -4 -6 -1 -11 8 -11 14 0 16 27 16
215 0 191 -2 215 -16 215 -10 0 -14 -6 -11 -15z"/>
<path d="M1950 649 c0 -5 5 -7 10 -4 6 3 10 8 10 11 0 2 -4 4 -10 4 -5 0 -10
-5 -10 -11z"/>
<path d="M13 563 c-7 -2 -13 -12 -13 -21 0 -15 2 -15 10 -2 7 11 9 3 5 -25 -3
-22 -8 -143 -10 -268 -4 -197 -3 -229 11 -234 8 -3 16 -4 18 -2 7 10 -7 108
-15 103 -5 -3 -9 7 -9 23 0 17 3 23 8 16 4 -7 8 59 8 146 1 87 4 183 8 214 7
55 5 61 -21 50z"/>
<path d="M55 560 c3 -5 8 -10 11 -10 2 0 4 5 4 10 0 6 -5 10 -11 10 -5 0 -7
-4 -4 -10z"/>
<path d="M2565 545 c-33 -8 -72 -14 -87 -14 -25 -1 -26 -3 -21 -43 2 -24 11
-65 20 -93 10 -31 15 -86 15 -145 0 -52 2 -87 5 -78 6 22 42 23 107 4 27 -8
54 -12 62 -9 8 3 35 -2 60 -12 39 -15 52 -15 89 -5 40 11 43 14 40 43 -2 18
-6 79 -10 137 -4 58 -9 121 -10 141 -4 39 10 75 19 49 5 -17 20 -231 21 -302
0 -49 11 -65 17 -25 3 20 -4 132 -15 256 -5 56 1 79 22 84 9 3 -12 5 -46 6
-34 0 -65 6 -68 11 -9 14 -149 11 -220 -5z m96 -22 c1 -16 2 -16 6 0 4 16 12
17 51 12 76 -10 90 -16 96 -38 10 -37 7 -59 -6 -51 -10 6 -10 4 0 -8 14 -17
23 -210 10 -223 -3 -3 -21 -9 -39 -12 -24 -3 -36 0 -46 13 -7 10 -13 14 -13 8
0 -12 -99 -7 -114 6 -12 9 -45 18 -76 19 -18 1 -22 65 -6 90 7 10 5 16 -3 19
-11 4 -11 6 0 13 11 7 10 9 -3 9 -10 0 -18 6 -19 13 0 11 -7 66 -10 84 -5 29
29 43 113 48 15 1 31 4 34 8 13 12 24 7 25 -10z m-71 -308 c9 -11 29 -15 69
-14 33 1 66 -4 78 -12 17 -10 31 -11 63 -3 43 12 54 2 19 -17 -21 -11 -76 -5
-200 22 -25 6 -58 11 -73 13 -15 1 -32 8 -38 14 -9 9 -2 12 29 12 24 0 46 -6
53 -15z"/>
<path d="M2960 550 c-7 -4 -20 -6 -28 -3 -12 5 -13 -13 -10 -118 5 -124 -3
-247 -17 -283 -6 -14 -5 -17 3 -12 7 4 12 1 12 -7 0 -10 -8 -14 -22 -11 -13 2
-17 2 -10 -2 14 -6 17 -94 3 -94 -9 0 -21 48 -21 85 0 23 0 23 -40 8 -36 -14
-45 -14 -97 0 -32 9 -89 19 -128 22 -38 3 -83 9 -99 12 l-29 5 7 -65 c7 -58 5
-66 -11 -70 -10 -3 102 -5 248 -6 239 -1 268 1 273 15 7 20 -2 33 -12 18 -4
-5 -13 -9 -19 -8 -7 1 -17 2 -23 3 -16 2 -12 48 5 48 8 0 15 -5 15 -10 0 -5 6
-4 13 2 8 6 17 8 20 4 4 -3 7 1 7 10 0 13 -9 17 -35 17 -28 0 -35 4 -35 20 0
16 7 20 35 20 19 0 35 4 35 9 0 4 -13 7 -30 5 -19 -2 -30 1 -30 9 0 7 12 14
27 15 34 3 40 9 23 25 -10 9 -11 9 -6 0 10 -18 -12 -16 -30 2 -9 8 -11 15 -6
15 9 0 9 20 2 40 -6 16 4 56 16 63 8 5 12 13 9 18 -4 5 -11 7 -16 4 -5 -4 -9
1 -9 10 0 10 6 15 13 12 8 -3 14 1 14 8 0 7 -6 11 -14 8 -9 -4 -13 5 -14 28 0
19 -2 44 -3 55 -3 29 19 58 39 51 9 -4 15 -1 15 7 0 18 -23 27 -40 16z m-300
-444 c8 -2 30 -7 48 -11 18 -4 35 -11 38 -16 2 -4 11 -6 19 -2 9 3 15 -1 15
-8 0 -10 2 -11 8 -2 4 6 20 15 36 19 20 5 27 3 22 -4 -3 -6 -2 -13 4 -17 5 -3
10 -13 10 -21 0 -16 -61 -18 -92 -2 -9 4 -19 4 -22 -1 -9 -13 -163 -14 -171 0
-6 8 -10 7 -16 -2 -7 -11 -9 -11 -9 -1 0 7 -5 10 -12 6 -6 -4 -8 -3 -4 4 3 6
0 14 -7 19 -8 4 -16 18 -19 29 -5 20 -3 21 66 18 39 -2 78 -6 86 -8z"/>
<path d="M1445 510 c-3 -5 1 -10 9 -10 9 0 16 5 16 10 0 6 -4 10 -9 10 -6 0
-13 -4 -16 -10z"/>
<path d="M1430 455 c0 -18 4 -23 15 -19 8 4 15 3 15 0 0 -4 -9 -10 -20 -14
-13 -5 -17 -11 -10 -21 12 -21 38 2 35 32 -4 34 -4 34 -20 41 -11 4 -15 -1
-15 -19z"/>
<path d="M2967 448 c6 -7 13 -20 16 -28 3 -8 5 -3 4 13 -1 16 -7 27 -15 27
-10 0 -11 -4 -5 -12z"/>
<path d="M1056 437 c3 -10 9 -15 12 -12 3 3 0 11 -7 18 -10 9 -11 8 -5 -6z"/>
<path d="M1331 434 c0 -11 3 -14 6 -6 3 7 2 16 -1 19 -3 4 -6 -2 -5 -13z"/>
<path d="M439 408 c0 -7 -3 -44 -8 -81 -4 -38 -4 -70 1 -73 4 -3 3 -14 -2 -25
-9 -15 -7 -19 5 -19 12 0 15 17 15 105 0 58 -2 105 -5 105 -3 0 -5 -6 -6 -12z"/>
<path d="M1346 394 c-8 -21 -8 -34 2 -34 4 0 9 11 10 25 2 28 -3 32 -12 9z"/>
<path d="M1340 341 c0 -5 7 -11 15 -15 9 -3 15 0 15 9 0 8 -7 15 -15 15 -8 0
-15 -4 -15 -9z"/>
<path d="M900 200 c-19 -4 -109 -11 -200 -14 -172 -7 -197 -9 -203 -17 -3 -2
-7 -39 -11 -81 l-7 -78 226 0 c207 0 225 1 226 18 0 9 4 52 8 95 3 43 4 80 1
81 -3 2 -21 0 -40 -4z m24 -78 c-4 -32 -8 -66 -9 -76 -1 -11 -7 -22 -13 -24
-9 -3 -11 15 -6 70 7 88 11 101 25 93 6 -5 8 -27 3 -63z m-44 38 c0 -5 -5 -12
-10 -15 -7 -4 -7 -13 0 -26 7 -11 7 -31 2 -51 l-8 -33 -177 -1 c-173 -1 -177
0 -178 20 -1 12 0 26 1 31 1 6 2 22 2 36 -1 23 4 27 40 33 25 4 45 2 54 -5 10
-8 14 -8 14 -1 0 6 25 12 58 14 123 6 202 5 202 -2z"/>
<path d="M1317 170 c-3 -11 -4 -20 -3 -20 1 0 9 9 19 20 13 15 14 20 3 20 -7
0 -16 -9 -19 -20z"/>
<path d="M460 159 c0 -5 5 -7 10 -4 6 3 10 8 10 11 0 2 -4 4 -10 4 -5 0 -10
-5 -10 -11z"/>
<path d="M1313 99 c2 -13 9 -25 15 -27 6 -2 8 5 5 18 -8 29 -24 36 -20 9z"/>
</g>
</svg>
